<svg width="100" height="102" viewBox="0 0 100 102" fill="none" xmlns="http://www.w3.org/2000/svg">
<path d="M35.5 33.2C35 33.2 34.2 33 33 32.5C33 32.5 36.1 34.1 37 36.9C37 36.9 37.3 35.6 36.5 33.5C36.5 33.5 36.5 33.5 36.5 33.4C36.7 34.5 36.5 35.1 36.5 35.1C36.3 34.5 35.9 33.8 35.5 33.2ZM48.8 30.5C49.2 30.4 49.6 30.6 50 31C49.4 30 48.7 29.2 48.1 29.4C47.1 29.7 47.2 33.6 48.7 37C47.8 33.8 47.9 30.8 48.8 30.5ZM60.9 42.6C61.1 41.2 61.4 39.3 61.9 38.3L61.3 39.3C61 39.7 60.4 39.8 60.1 39.4L57.6 36C57.6 36 59.7 39.6 60.5 42.7C60.5 42.8 60.9 42.8 60.9 42.6ZM65 68.2C66.9 68.2 67.5 66.1 67.5 66.1C67.5 66.1 73.1 67.6 74.6 65.5C76 63.4 77.4 60 77.8 55.8C78.1 51.6 80.6 45.5 77.5 37.6C74.9 31.3 69.1 35.6 65.3 33C61.6 30.4 59.9 29.3 56.1 29.9C52.2 30.5 53.1 30.7 48.1 26.2C45.9 24.1 40.4 27.6 40.4 27.6C40.4 27.6 46.3 24.9 48.6 27.4C50.9 29.9 52.1 32.4 56 31.5C59.9 30.6 63.9 34.1 63.9 34.1C63.9 34.1 65.9 35.9 69.7 35.6C68.6 37 68.5 38.9 68.5 38.9C68.8 38 69.2 37.3 69.6 36.8C71 35.2 73.5 35.3 74.9 36.9C76.6 39 78.1 42.9 77.6 47.9C77.3 50.6 76.9 53.4 76.4 55.9C76.5 54.4 76.5 52.6 76.4 50.6C76.4 50.6 76 63.1 73.1 64.9C73 65 72.9 65 72.8 65C71.7 64.9 70.6 65 69.7 64.8H73C73 64.8 69.8 64.5 69 64C69 64 69.8 64.2 71.8 63.8C71.8 63.8 69.8 64 68.9 62.1C68 60 69.8 55.4 69.3 53C69.3 53 69.2 55.5 68.3 57.4C68.3 55.7 68.3 53.8 68 52.1C67.3 47.9 68.3 43.4 68.3 43.4C68.3 43.4 67.5 45 67.4 45.7C67.4 45.7 67.2 41.1 66.4 39.3C66.4 39.3 67.4 45.6 66.8 48.7C66.2 51.9 67.3 64.1 66.4 65C65.4 66 62 66 62 66C62 66 64.6 65.9 65.5 64.7C65.5 64.7 58.8 66.1 56.2 63.5C56.3 62.4 55.8 56 55.2 53.7C54.7 51.4 54.3 48.3 54.3 46.5C54.3 44.7 51.9 40.6 51.9 40.6C51.9 40.6 53.9 46.8 54.3 53.4C54.7 60 55.7 65.6 52.5 66.2C51.7 66.3 50.8 66.5 50 66.7C49.8 66.7 46.3 67.4 45.6 65.7C45.6 65.7 45.7 66.3 46 66.7C46 66.7 44.3 66.8 43.7 65.1C43.1 63.3 43.5 61.2 43.5 61.2C43.5 61.2 42.7 63.6 43.1 65.4C43 65.2 43 65 43 64.8C42.7 62 44.4 56.1 42.9 51.8C42.9 51.8 43 53 42.8 53.5C42.8 53.5 39.8 43.9 36.3 38.8C36.3 38.8 38.4 42.5 40.1 47.4C39.4 46 38.3 44.3 36.7 42.3C36.7 42.3 40.1 47.4 41.3 51.1C42 53.7 42.4 56.5 42.3 59C42.3 59.1 40.2 62.2 34.3 62.9C34.3 62.9 37.1 63.4 39.6 63C38 63.6 36 64.1 34.8 64.3C34.6 64.3 34.4 64.4 34.2 64.4C28.8 64.1 26.6 51.1 26.6 51.1C26.5 52.8 26.9 54.9 27.2 56.9C26.7 55.7 26.3 54.2 25.9 52.6C24.4 47.9 25.8 48.6 25.5 46.5C25.2 44.3 23.2 42.1 23.3 39.1C23.4 36.1 25.7 31 28 29.4C30.3 27.9 36.5 32 40.3 28.9C40.3 28.9 34.8 29.2 31.5 27.5C28.2 25.9 23.3 30.5 21.7 39.3C21.4 44.2 25.4 53.5 23.2 57.8C21 62.1 20 65.2 22.4 69.4C24.8 73.5 24.6 77.7 36.2 76C46 74.8 48.5 76.1 49.1 71.4C49.2 70.7 49.2 69.9 49 69.2C48.9 69 48.9 68.8 48.8 68.6C50.7 68.6 54.2 68.5 54.8 66.9C55.4 68.6 58.9 69.4 65 68.2ZM26.6 61.7C23 64.3 23.4 69.7 23.4 69.7C21.7 67.5 20.9 63 23.1 60C25.4 57 24.6 53.4 24.6 53.4L25 54C25.7 55.6 25.7 57.4 25.1 59C25.7 58.6 26.7 58.8 26.7 58.8C24.1 59.6 23.7 63.5 23.7 63.5C24.8 62.1 26.6 61.7 26.6 61.7ZM5.3 32.9L11.4 39.1L11 39.7L13.3 41.1L15.3 36.7L12.8 35.9L12.5 36.5L11.7 35.7L13.6 31.6L14.7 31.7L14.4 32.3L16.7 33.7L18.7 29.3L16.2 28.5L15.9 29.2L7.3 28.6L7.6 28L5.4 26.6L2.6 32.7L5 33.4L5.3 32.9ZM10.8 31.3L9.7 33.6L7.2 31L10.8 31.3ZM13.7 20.2L13.1 19.6L14.5 18.2L20.3 23.8L19.8 24.4L21.5 26.4L24.8 22.9L22.7 21.3L22.1 22L16.3 16.4L17.7 15L18.3 15.6L20.3 13.9L17.6 11.3L9.4 19.9L12.1 22.5L13.7 20.2ZM25.3 9L28.7 16.4L28 16.7L28.8 19.2L33.2 17.2L31.8 15L31.1 15.3L30 12.8L34.7 10.6L35.8 13.1L35.1 13.4L35.9 15.9L40.3 13.9L38.9 11.6L38.2 11.9L34.8 4.5L35.5 4.2L34.7 1.7L30.3 3.7L31.7 6L32.4 5.7L33.5 8.2L28.8 10.4L27.7 7.9L28.4 7.6L27.6 5.1L23.2 7.1L24.6 9.4L25.3 9ZM42.7 2.9L43.2 11H42.5L42.4 13.6L52.6 13L52.4 9.3L49.8 9.8L49.9 10.6L46 10.9L45.5 2.8L46.3 2.7V0L41.5 0.3L42 2.9H42.7ZM65.6 12.2L63 11.8L62.8 12.6L59 11.6L59.7 8.9L63.6 9.9L64.6 7.4L60.4 6.3L61 3.7L64.8 4.7L64.6 5.5L67.1 6.5L68 2.9L58 0.3L57.6 2.9L58.4 3.1L56.3 10.9L55.5 10.7L54.5 13.2L64.4 15.8L65.6 12.2ZM74.8 19.2L74.2 18.7L78.9 12.1L80.5 13.3L80 13.9L82 15.7L84.1 12.7L74.4 5.8L72.3 8.8L74.6 10.1L75.1 9.5L76.7 10.7L72 17.3L71.4 16.8L69.6 18.8L73.5 21.6L74.8 19.2ZM80.5 24.7L80 24.1L77.8 25.5L80.8 29.3L82.7 27.4L82.2 26.8L88.5 21.7L89 22.3L91.2 20.9L88.2 17.1L86.3 19L86.8 19.6L80.5 24.7ZM83.2 33.1L86.4 40.4L89.8 38.9L88.5 36.6L87.8 36.9L86 33L86.4 32L92.4 29.3L93.4 29.7L95.1 33.6L94.4 33.9L95.2 36.4L98.6 34.9L95.4 27.6L92.4 26.4L84.4 30L83.2 33.1ZM4.2 62.7L5 65.4L6.8 65.1L6 62.3L7.8 61.8L8.5 64.4L8 64.5L8.3 66.3L10.8 65.6L8.9 58.7L7.2 59.4L7.3 60L1.9 61.5L1.8 61L0 61.3L0.9 64.5L2.6 63.8L2.5 63.3L4.2 62.7ZM10.8 70.1L11 70.6L12.7 70L11.3 67L9.8 68L10 68.5L5 70.8L4.8 70.3L3.1 70.9L4.5 73.9L6 73L5.8 72.5L10.8 70.1ZM14.7 76.5L15.5 77.6L15 78L15.9 79.6L18 78.1L13.4 71.4L11.3 72.9L12.5 74.3L12.9 74L13.7 75.1L9.1 78.3L8.8 77.9L7.2 78.8L9 81.3L10.4 80.1L10.1 79.7L14.7 76.5ZM23.3 85.7L23.7 86.1L25.1 84.9L22.7 82.7L21.6 84.2L22 84.6L18.9 88L21.1 81.3L18.7 79L17.6 80.5L18 80.9L14.3 85L13.9 84.6L12.5 85.8L14.9 88L16 86.5L15.6 86.1L18.7 82.7L16.5 89.4L18.9 91.6L20 90.1L19.6 89.7L23.3 85.7ZM31 91.3L32.3 89.1L26.2 85.5L25.5 87.2L26 87.5L23.2 92.3L22.7 92L21.6 93.5L27.7 97.1L29 94.9L27.3 94.2L27 94.6L24.6 93.2L25.5 91.6L28 93L29.1 91.5L26.5 90L27.4 88.4L29.8 89.8L29.5 90.3L31 91.3ZM33 91.2L32.3 93.4L33.3 95.4L36.3 96.4L36.6 97.1L36.3 97.9L35.6 98.2L32.8 97.3L33 96.8L31.5 96L30.7 98.4L35.9 100.1L37.9 99.1L38.6 96.9L37.6 94.9L34.6 93.9L34.3 93.2L34.6 92.4L35.3 92.1L38.1 93L37.9 93.5L39.5 94.3L40.3 91.9L35 90.2L33 91.2ZM41.4 93.8L41.1 96.1L42.5 97.9L45.6 98.3L46.1 98.9L46 99.7L45.4 100.2L42.5 99.9L42.6 99.4L40.8 99L40.5 101.5L46 102L47.8 100.6L48.1 98.3L46.7 96.5L43.6 96.1L43 95.6L43.1 94.8L43.7 94.3L46.6 94.6L46.5 95.1L48.3 95.5L48.6 93L43.2 92.4L41.4 93.8ZM62.4 98.2L62.5 98.7L59.6 99.3L59 99L58 94.6L58.4 94L61.3 93.4L61.4 93.9L63.2 93.7L62.6 91.2L57.2 92.4L56 94.3L57.3 100.2L59.2 101.4L64.6 100.2L64 97.7L62.4 98.2ZM71.4 94.9L71.6 95.4L69.1 96.5L68.3 94.8L70.8 93.7L70.3 92L67.6 93.2L66.8 91.5L69.3 90.4L69.5 90.9L71.2 90.4L70.2 88.1L63.7 91L64.6 92.6L65.1 92.4L67.4 97.5L67 97.4L67.5 99.1L74 96.2L73 93.9L71.4 94.9ZM82 88.6L78.7 84.1L79.1 83.8L78.2 82.2L75.5 84.2L76.7 85.5L77.1 85.2L79.8 88.9L73.7 85.4L71 87.4L72.2 88.7L72.6 88.4L75.9 92.9L75.5 93.2L76.4 94.8L79.1 92.8L77.9 91.5L77.5 91.8L75 88.1L81 91.6L83.7 89.6L82.5 88.3L82 88.6ZM87.9 82.4L83.7 78.8L84.6 77.8L85 78.2L86.3 77L84.4 75.3L79.1 81.5L81 83.2L82 81.7L81.6 81.3L82.5 80.3L86.7 83.9L86.3 84.3L87.5 85.6L89.7 83.1L88.2 82.1L87.9 82.4ZM93.5 72.8L94 73.1L92.7 75.5L91 74.6L92.3 72.2L90.8 71.1L89.4 73.7L87.8 72.8L89.1 70.4L89.6 70.7L90.7 69.2L88.4 68L85 74.2L86.7 74.9L87 74.4L91.9 77.1L91.6 77.6L93.1 78.7L96.5 72.5L94.3 71.3L93.5 72.8ZM99 65.3L100 61.9L98.2 61.6L98 62.1L96 62.5L95 60.5L92.8 59.8L90.8 60.9L89 66.9L90.8 67.2L91 66.7L96.3 68.3L96 68.9L97.7 69.6L98.7 66.4L96.9 66.1L96.7 66.6L94.9 66.1L95.4 64.6L97.5 64.1L97.3 64.6L99 65.3ZM93.2 65.5L91.4 65L92.2 62.2L92.9 61.8L93.7 62L94 62.7L93.2 65.5ZM2.3 51.6L4.5 50.4L6.7 51.6L6.3 49.1L8.1 47.3L5.7 47L4.6 44.7L3.4 47L0.9 47.4L2.7 49.2L2.3 51.6ZM96.6 47L95.5 44.7L94.4 47L91.9 47.4L93.7 49.2L93.3 51.7L95.5 50.5L97.7 51.7L97.3 49.2L99.1 47.4L96.6 47Z" fill="black"/>
</svg>
