<svg width="107" height="92" viewBox="0 0 107 92" fill="none" xmlns="http://www.w3.org/2000/svg">
<path d="M44.8062 8.2C46.3062 8.2 46.9062 6.7 46.9062 6.1C46.9062 5.9 46.9062 5.9 46.8062 5.9C46.6062 5.9 46.3062 6.4 45.5062 6.4C44.9062 6.4 44.1062 6 44.1062 4.8C44.1062 2.6 46.3062 1.2 49.1062 1.2C50.8062 1.2 52.3062 2 53.7062 2.4C52.9062 4 51.8062 7.1 51.1062 9.7C50.9062 10.6 50.5062 11 50.5062 11.7C50.5062 12.3 50.8062 12.6 51.3062 12.6C52.2062 12.6 52.6062 11.7 52.9062 10.8C53.4062 9.6 54.6062 7.9 55.0062 7.9C55.1062 7.9 55.2062 8 55.2062 8C55.2062 8.4 54.1062 9.8 54.1062 11.1C54.1062 11.7 54.4062 12.6 55.5062 12.6C56.7062 12.6 57.5062 12.2 59.7062 9.1C59.6062 9.5 59.5062 10 59.5062 10.4C59.5062 11.8 60.4062 12.6 61.7062 12.6C63.9062 12.6 65.7062 10.8 67.7062 8C67.7062 7.9 67.8062 7.9 67.8062 7.8C67.8062 7.6 67.7062 7.5 67.5062 7.5C67.4062 7.5 67.3062 7.5 67.2062 7.6C66.1062 9 64.5062 11 62.7062 11C61.6062 11 61.4062 10.4 61.3062 9.7H61.4062C64.2062 9.7 65.4062 8.3 65.4062 7.2C65.4062 6.4 64.7062 5.8 63.7062 5.8C62.4062 5.8 61.2062 6.6 60.5062 7.6C60.5062 7.6 60.4062 7.5 60.3062 7.5C60.2062 7.5 60.1062 7.6 60.0062 7.7C58.0062 10.6 57.1062 11.5 56.5062 11.5C56.3062 11.5 56.2062 11.3 56.2062 11C56.2062 10.8 56.3062 10.5 56.4062 10.2C56.7062 9.4 57.5062 8.1 57.5062 6.7C57.5062 6.1 57.2062 5.8 56.6062 5.8C55.6062 5.8 54.1062 7.4 53.2062 9.1C53.2062 9.1 54.7062 4.8 55.5062 2.8C56.4062 2.8 58.1062 2.5 58.1062 1.3C58.1062 0.5 57.5062 0 56.5062 0C55.7062 0 54.9062 0.5 54.3062 1.3C53.8062 1.2 52.2062 0.2 49.3062 0.2C45.0062 0.2 42.2062 2.3 42.2062 5.4C42.1062 7 43.3062 8.2 44.8062 8.2ZM63.0062 7C63.4062 7 63.6062 7.2 63.6062 7.7C63.6062 9 62.2062 9.2 61.4062 9.2H61.3062C61.4062 7.8 62.3062 7 63.0062 7ZM56.7062 1C56.8062 1 56.9062 1.1 56.9062 1.2C56.9062 1.6 56.3062 1.7 56.0062 1.7H55.9062C56.1062 1.4 56.4062 1 56.7062 1ZM42.8062 13.9C44.9062 13.9 48.3062 13 49.8062 7.5C51.4062 1.7 52.2062 2.8 52.2062 2.3C52.2062 2.2 52.1062 2.1 52.0062 2.1C51.2062 2.1 48.8062 2.7 47.5062 7.1C45.9062 12.3 44.4062 13 42.9062 13C42.1062 13 41.8062 12.5 41.8062 12.5C41.8062 12.5 42.6062 12.2 42.6062 11.3C42.6062 10.5 42.0062 9.9 41.2062 9.9C40.2062 9.9 39.6062 10.8 39.6062 11.6C39.5062 12.8 40.6062 13.9 42.8062 13.9ZM9.00622 52.5C10.7062 52.3 11.6062 52.1 13.3062 51.9C13.2062 50.8 13.1062 50.3 12.9062 49.3C11.2062 49.5 10.3062 49.6 8.60622 49.9C7.30622 40.9 6.60622 36.4 5.30622 27.4C7.20622 27.1 8.10622 27 9.90622 26.7C9.80622 25.6 9.70622 25.1 9.60622 24.1C6.40622 24.5 4.80622 24.7 1.50622 25.2C4.30622 42.8 7.10622 60.4 9.90622 78C11.0062 77.8 11.6062 77.7 12.7062 77.6C11.2062 67.5 10.5062 62.5 9.00622 52.5ZM19.5062 22.9C18.1062 23 17.5062 23.1 16.1062 23.3C18.1062 41 20.1062 58.7 22.1062 76.4C23.2062 76.3 23.8062 76.2 25.0062 76.1C23.1062 58.3 21.3062 40.6 19.5062 22.9ZM36.7062 21.6C32.6062 21.8 30.5062 21.9 26.5062 22.3C26.6062 23.4 26.6062 23.9 26.7062 25C28.1062 24.9 28.7062 24.8 30.1062 24.7C31.3062 41.6 32.5062 58.4 33.7062 75.3C34.8062 75.2 35.4062 75.2 36.6062 75.1C35.6062 58.2 34.5062 41.3 33.5062 24.5C34.9062 24.4 35.5062 24.4 36.9062 24.3C36.7062 23.2 36.7062 22.7 36.7062 21.6ZM43.5062 21.4C43.5062 21.7 43.6062 21.8 43.6062 22.1C44.1062 39.7 44.7062 57.2 45.2062 74.8C46.3062 74.8 46.9062 74.8 48.1062 74.7C47.9062 63.1 47.8062 57.3 47.5062 45.6C49.3062 57.2 50.1062 63 51.6062 74.6C52.8062 74.6 53.4062 74.6 54.6062 74.6C54.6062 74.3 54.6062 74.2 54.5062 73.9C54.6062 56.3 54.6062 38.8 54.7062 21.2C53.3062 21.2 52.6062 21.2 51.3062 21.2C51.4062 32.8 51.4062 38.6 51.5062 50.3C49.9062 38.7 49.0062 32.9 47.1062 21.3C45.6062 21.3 44.9062 21.3 43.5062 21.4ZM69.9062 24.3C70.0062 23.2 70.0062 22.7 70.0062 21.6C66.8062 21.4 65.1062 21.4 61.9062 21.3C61.5062 39.1 61.0062 56.9 60.6062 74.7C63.3062 74.8 64.7062 74.8 67.4062 74.9C67.5062 73.8 67.5062 73.3 67.5062 72.2C65.9062 72.1 65.1062 72.1 63.5062 72C63.8062 62.9 64.0062 58.4 64.3062 49.4C66.0062 49.5 66.9062 49.5 68.6062 49.6C68.7062 48.5 68.7062 48 68.7062 46.9C67.0062 46.8 66.1062 46.8 64.4062 46.7C64.7062 37.6 64.9062 33.1 65.2062 24C67.1062 24.2 68.1062 24.2 69.9062 24.3ZM77.5062 55.2C76.3062 55.1 75.7062 55.1 74.4062 55C74.1062 59.8 73.9062 62.2 73.6062 66.9C73.5062 68.6 73.4062 69.9 73.5062 71C73.5062 72.1 73.7062 72.9 74.0062 73.6C74.3062 74.3 74.7062 74.7 75.3062 75C75.9062 75.3 76.7062 75.5 77.6062 75.6C78.6062 75.7 79.4062 75.6 80.0062 75.4C80.6062 75.2 81.1062 74.8 81.5062 74.2C81.9062 73.6 82.2062 72.8 82.4062 71.7C82.6062 70.6 82.8062 69.3 83.0062 67.6C83.5062 62.9 83.7062 60.5 84.2062 55.8C84.3062 55.3 84.0062 54.5 83.6062 53.3C83.1062 52.1 82.5062 50.9 81.9062 49.6C81.5062 48.9 81.2062 48.1 80.7062 47.3C80.3062 46.5 79.9062 45.8 79.6062 45.1C79.3062 44.4 79.0062 43.8 78.8062 43.3C78.6062 42.8 78.5062 42.5 78.5062 42.4C78.9062 37.6 79.1062 35.2 79.5062 30.5C79.7062 28.3 79.9062 26.8 80.2062 26C80.5062 25.2 81.1062 24.9 82.0062 25C82.8062 25.1 83.4062 25.5 83.5062 26.3C83.7062 27.1 83.7062 28.6 83.5062 30.9C83.1062 35.6 82.8062 38 82.4062 42.8C83.7062 42.9 84.3062 43 85.6062 43.1C86.1062 38.4 86.3062 36 86.8062 31.3C87.0062 29.6 87.0062 28.3 87.0062 27.2C87.0062 26.1 86.8062 25.3 86.5062 24.6C86.2062 23.9 85.7062 23.4 85.0062 23.1C84.3062 22.8 83.4062 22.6 82.2062 22.5C81.0062 22.4 80.1062 22.5 79.3062 22.7C78.6062 22.9 78.0062 23.3 77.5062 23.9C77.1062 24.5 76.8062 25.3 76.5062 26.4C76.3062 27.5 76.1062 28.8 76.0062 30.5C75.7062 35.3 75.5062 37.7 75.2062 42.4C75.2062 43 75.5062 43.9 76.1062 45.2C76.7062 46.5 77.4062 47.9 78.1062 49.3C78.8062 50.7 79.5062 52.1 80.1062 53.3C80.7062 54.5 81.0062 55.3 81.1062 55.7C80.7062 60.4 80.4062 62.8 80.0062 67.5C79.8062 69.7 79.5062 71.2 79.3062 72C79.0062 72.8 78.5062 73.1 77.8062 73.1C77.0062 73 76.6062 72.6 76.4062 71.8C76.3062 71 76.3062 69.5 76.5062 67.3C76.9062 62.3 77.1062 59.9 77.5062 55.2ZM103.006 25.2C102.306 24.8 101.406 24.6 100.206 24.4C99.0062 24.2 98.1062 24.2 97.3062 24.4C96.6062 24.6 95.9062 24.9 95.5062 25.5C95.0062 26.1 94.7062 26.9 94.4062 27.9C94.1062 28.9 93.9062 30.3 93.7062 32C93.1062 36.8 92.8062 39.1 92.2062 43.9C92.1062 44.5 92.4062 45.4 92.9062 46.7C93.4062 48 94.0062 49.4 94.7062 50.9C95.3062 52.4 95.9062 53.7 96.5062 55C97.0062 56.3 97.3062 57.1 97.4062 57.4C96.7062 62.1 96.4062 64.5 95.7062 69.2C95.4062 71.4 95.0062 72.9 94.7062 73.6C94.4062 74.3 93.8062 74.7 93.1062 74.6C92.3062 74.5 91.9062 74 91.8062 73.2C91.7062 72.4 91.8062 70.9 92.1062 68.7C92.7062 64 93.1062 61.6 93.7062 56.8C92.5062 56.6 91.9062 56.6 90.6062 56.4C90.0062 61.2 89.7062 63.5 89.1062 68.3C88.9062 70 88.8062 71.3 88.8062 72.4C88.8062 73.5 88.9062 74.3 89.1062 75C89.3062 75.7 89.8062 76.2 90.3062 76.5C90.9062 76.8 91.6062 77.1 92.6062 77.2C93.6062 77.3 94.4062 77.3 95.0062 77.2C95.6062 77 96.2062 76.7 96.6062 76.1C97.0062 75.5 97.4062 74.7 97.7062 73.7C98.0062 72.7 98.2062 71.3 98.5062 69.7C99.2062 65 99.6062 62.7 100.306 58C100.406 57.5 100.206 56.6 99.8062 55.5C99.4062 54.3 98.8062 53 98.3062 51.7C98.0062 51 97.6062 50.2 97.3062 49.4C96.9062 48.6 96.6062 47.8 96.3062 47.1C96.0062 46.4 95.8062 45.8 95.6062 45.3C95.4062 44.8 95.3062 44.5 95.4062 44.3C96.0062 39.6 96.4062 37.2 97.0062 32.4C97.3062 30.2 97.6062 28.7 97.9062 27.9C98.2062 27.1 98.8062 26.8 99.7062 27C100.506 27.1 101.006 27.6 101.206 28.4C101.306 29.2 101.206 30.7 100.906 32.9C100.206 37.6 99.9062 40 99.2062 44.7C100.506 44.9 101.106 45 102.406 45.2C103.106 40.5 103.506 38.1 104.306 33.4C104.606 31.7 104.706 30.4 104.706 29.3C104.706 28.2 104.606 27.3 104.306 26.7C104.206 26.1 103.706 25.6 103.006 25.2ZM34.6062 90.2C34.3062 90.4 33.9062 90.5 33.5062 90.5C32.8062 90.6 32.2062 90.3 31.6062 89.9C31.0062 89.4 30.7062 88.8 30.7062 88.1C30.6062 87.3 30.8062 86.7 31.3062 86.2C31.8062 85.7 32.4062 85.4 33.2062 85.3C33.6062 85.3 34.0062 85.3 34.4062 85.4C34.7062 85.5 35.1062 85.7 35.5062 86C35.8062 85.6 36.0062 85.4 36.3062 85.1C35.4062 84.3 34.4062 83.9 33.2062 84C32.0062 84.1 31.0062 84.5 30.3062 85.4C29.6062 86.2 29.3062 87.2 29.4062 88.3C29.5062 89.4 30.0062 90.3 30.8062 91C31.6062 91.7 32.6062 91.9 33.7062 91.9C34.8062 91.8 35.8062 91.3 36.5062 90.4C36.1062 90.1 36.0062 89.9 35.6062 89.6C35.2062 89.8 34.9062 90.1 34.6062 90.2ZM40.0062 90.1C40.0062 89.3 39.9062 88.9 39.9062 88.1C41.4062 88 42.1062 88 43.6062 87.9C43.6062 87.4 43.6062 87.2 43.6062 86.8C42.1062 86.9 41.4062 86.9 39.9062 87C39.9062 86.2 39.8062 85.8 39.8062 85C41.5062 84.9 42.3062 84.9 44.0062 84.8C44.0062 84.3 44.0062 84.1 44.0062 83.6C41.8062 83.7 40.7062 83.7 38.5062 83.8C38.7062 86.8 38.8062 88.3 38.9062 91.3C41.1062 91.2 42.2062 91.1 44.4062 91.1C44.4062 90.6 44.4062 90.4 44.4062 89.9C42.5062 90 41.6062 90 40.0062 90.1ZM52.2062 83.4C52.2062 85.6 52.2062 86.8 52.2062 89C50.4062 86.8 49.5062 85.7 47.6062 83.5C47.1062 83.5 46.8062 83.5 46.3062 83.5C46.4062 86.5 46.4062 88 46.5062 91C47.0062 91 47.3062 91 47.8062 91C47.8062 88.8 47.7062 87.7 47.7062 85.5C49.5062 87.7 50.4062 88.7 52.1062 90.9C52.7062 90.9 52.9062 90.9 53.5062 90.9C53.5062 87.9 53.5062 86.4 53.5062 83.4C52.9062 83.4 52.7062 83.4 52.2062 83.4ZM55.6062 84.6C56.5062 84.6 57.0062 84.6 58.0062 84.6C58.0062 87.1 57.9062 88.4 57.9062 90.9C58.4062 90.9 58.7062 90.9 59.2062 90.9C59.3062 88.4 59.3062 87.1 59.3062 84.6C60.2062 84.6 60.7062 84.6 61.7062 84.7C61.7062 84.2 61.7062 84 61.7062 83.5C59.3062 83.4 58.1062 83.4 55.6062 83.4C55.6062 83.9 55.6062 84.1 55.6062 84.6ZM63.5062 91.1C65.7062 91.2 66.8062 91.2 69.0062 91.4C69.0062 90.9 69.0062 90.7 69.1062 90.2C67.4062 90.1 66.6062 90.1 64.9062 90C64.9062 89.2 64.9062 88.8 65.0062 88C66.5062 88.1 67.2062 88.1 68.7062 88.2C68.7062 87.8 68.7062 87.5 68.8062 87.1C67.3062 87 66.6062 87 65.1062 86.9C65.1062 86.1 65.2062 85.7 65.2062 84.9C66.9062 85 67.7062 85 69.4062 85.1C69.4062 84.6 69.4062 84.4 69.5062 83.9C67.3062 83.8 66.2062 83.7 64.0062 83.6C63.6062 86.6 63.6062 88.1 63.5062 91.1ZM74.6062 84.2C73.4062 84.1 72.9062 84.1 71.7062 84C71.5062 87 71.4062 88.5 71.2062 91.5C71.7062 91.5 72.0062 91.5 72.5062 91.6C72.6062 90.6 72.6062 90.1 72.7062 89.1C73.4062 89.1 73.7062 89.2 74.4062 89.2C75.1062 90.3 75.4062 90.8 76.0062 91.9C76.7062 92 77.0062 92 77.6062 92C76.9062 90.8 76.6062 90.3 75.8062 89.1C76.9062 88.9 77.5062 88.1 77.7062 86.9C77.8062 86.1 77.6062 85.4 77.1062 85C76.6062 84.6 75.8062 84.3 74.6062 84.2ZM76.4062 86.8C76.4062 87.3 76.2062 87.6 75.9062 87.8C75.6062 88 75.1062 88.1 74.4062 88C73.8062 88 73.4062 87.9 72.8062 87.9C72.9062 86.8 72.9062 86.3 73.0062 85.2C73.7062 85.2 74.0062 85.3 74.7062 85.3C75.4062 85.4 75.9062 85.5 76.1062 85.7C76.3062 86 76.4062 86.3 76.4062 86.8ZM106.306 20.3C70.4062 15.2 36.7062 15.2 0.806221 20.3C-0.393779 20.5 -0.193779 21.9 1.00622 21.7C37.3062 17.1 70.3062 16.7 106.006 21.7C107.306 21.9 107.506 20.5 106.306 20.3ZM96.7062 81.4C68.2062 77 39.0062 77 10.5062 81.4C9.50622 81.5 9.80622 83 10.7062 82.8C39.1062 78.4 68.1062 78.4 96.5062 82.8C97.5062 83 97.7062 81.6 96.7062 81.4Z" fill="black"/>
</svg>
