<svg width="150" height="75" viewBox="0 0 150 75" fill="none" xmlns="http://www.w3.org/2000/svg">
<path d="M24.5063 31.9C24.9062 32.6 25.2063 33.4 25.6063 34.1C26.0063 35 26.2063 35.4 26.6063 36.3C26.3063 35.5 26.0062 34.8 25.7062 34C25.4062 33.3 25.0062 32.5 24.7062 31.8C24.3062 31.1 23.9062 30.4 23.4062 29.7C23.2062 29.4 22.9062 29 22.6063 28.7C22.5063 28.5 22.3063 28.4 22.1063 28.3C21.9062 28.2 21.7063 28 21.5063 28C21.7063 28 21.9062 28.2 22.1063 28.3C22.3063 28.4 22.4062 28.6 22.5063 28.8C22.8062 29.1 23.0062 29.5 23.2062 29.8C23.7062 30.5 24.1063 31.2 24.5063 31.9ZM123.206 36.3C123.606 35.4 123.806 35 124.206 34.1C124.606 33.4 124.906 32.6 125.306 31.9C125.706 31.2 126.106 30.5 126.506 29.8C126.706 29.5 127.006 29.1 127.206 28.8C127.306 28.6 127.506 28.5 127.606 28.3C127.806 28.2 127.906 28 128.206 28C128.006 28 127.806 28.2 127.606 28.3C127.406 28.4 127.306 28.6 127.106 28.7C126.806 29 126.606 29.3 126.306 29.7C125.806 30.4 125.406 31.1 125.006 31.8C124.606 32.5 124.306 33.3 124.006 34C123.806 34.8 123.506 35.6 123.206 36.3ZM149.006 37.9C147.706 37.3 147.006 36.9 145.706 36.3C145.806 34.9 145.506 33.8 144.706 33.5C143.206 32.8 141.606 32.2 140.106 31.5C140.106 29.8 139.706 28.6 138.806 28.3C136.806 27.5 134.706 26.7 132.606 26C134.606 26.9 136.606 27.8 138.606 28.8C141.106 30.8 138.606 37.1 138.006 39.4V39.5C138.406 38.4 138.706 37.2 138.906 36.1C139.206 34.9 139.406 33.8 139.406 32.6C139.206 33.8 139.006 34.9 138.606 36.1C138.206 37.3 137.906 38.3 137.506 39.4C137.206 40.1 136.906 40.9 136.606 41.6C136.906 40.8 137.106 40.1 137.406 39.3C137.706 38.2 138.106 37 138.306 35.9C138.606 34.7 138.706 33.6 138.806 32.4C138.606 33.6 138.406 34.7 138.006 35.9C137.706 37 137.306 38.1 136.906 39.2C136.606 39.9 136.306 40.7 136.006 41.4C136.306 40.6 136.506 39.9 136.806 39.1C137.106 38 137.406 36.8 137.706 35.7C137.906 34.5 138.106 33.4 138.206 32.2C138.006 33.4 137.806 34.5 137.406 35.7C137.106 36.8 136.706 37.9 136.306 39C136.006 39.7 135.706 40.5 135.406 41.2C135.706 40.4 135.906 39.7 136.106 38.9C136.406 37.8 136.706 36.6 137.006 35.5C137.206 34.3 137.406 33.2 137.506 32C137.306 33.2 137.106 34.3 136.806 35.5C136.506 36.6 136.106 37.7 135.706 38.8C135.406 39.5 135.106 40.3 134.806 41C135.106 40.2 135.306 39.5 135.506 38.7C135.806 37.6 136.106 36.4 136.406 35.3C136.606 34.1 136.806 33 136.906 31.8C136.706 33 136.506 34.1 136.206 35.3C135.906 36.4 135.506 37.6 135.106 38.7C134.806 39.4 134.506 40.2 134.206 40.9C134.506 40.1 134.706 39.4 134.906 38.6C135.206 37.5 135.506 36.3 135.806 35.2C136.006 34 136.206 32.9 136.306 31.7C136.206 32.9 135.906 34 135.606 35.2C135.306 36.3 134.906 37.5 134.506 38.6C134.206 39.3 133.906 40.1 133.606 40.8C133.906 40 134.106 39.3 134.306 38.5C134.606 37.4 134.906 36.2 135.106 35.1C135.306 33.9 135.506 32.8 135.606 31.6C135.506 32.8 135.206 33.9 134.906 35.1C134.606 36.2 134.206 37.4 133.806 38.5C133.506 39.2 133.206 40 133.006 40.7C133.306 39.9 133.506 39.2 133.706 38.4C134.006 37.3 134.306 36.1 134.506 35C134.706 33.8 134.906 32.7 135.006 31.5C134.906 32.7 134.606 33.8 134.306 35C134.006 36.1 133.606 37.3 133.306 38.4C133.006 39.1 132.806 39.9 132.506 40.6C132.706 39.8 133.006 39.1 133.206 38.3C133.506 37.2 133.806 36 134.006 34.8C134.206 33.6 134.406 32.5 134.406 31.3C134.306 32.5 134.006 33.6 133.706 34.8C133.406 35.9 133.106 37.1 132.706 38.2C132.406 38.9 132.206 39.7 131.906 40.4C132.106 39.6 132.406 38.9 132.606 38.1C132.906 37 133.206 35.8 133.406 34.6C133.606 33.4 133.806 32.3 133.806 31.1C133.706 32.3 133.406 33.4 133.106 34.6C132.806 35.7 132.506 36.9 132.106 38C131.806 38.7 131.606 39.5 131.306 40.2C131.506 39.4 131.806 38.7 132.006 37.9C132.306 36.8 132.606 35.6 132.806 34.4C133.006 33.2 133.206 32.1 133.206 30.9C133.106 32.1 132.806 33.2 132.606 34.4C132.306 35.5 132.006 36.7 131.606 37.8C131.306 38.6 131.106 39.3 130.806 40C131.006 39.3 131.206 38.6 131.406 37.9C131.706 36.7 132.006 35.5 132.206 34.3C132.406 33.1 132.606 31.9 132.606 30.7C132.506 31.9 132.206 33.1 131.906 34.3C131.606 35.5 131.306 36.6 130.906 37.8C130.806 38.1 130.706 38.4 130.606 38.7C131.606 35.4 133.506 30 131.406 26.7C132.106 28.6 131.906 30.8 131.506 32.8C130.906 36 128.806 42 128.806 42C128.806 42 133.606 27.1 130.006 25.9C126.506 24.8 122.706 35.4 121.606 38.4C91.0062 29.3 58.9062 29.3 28.3062 38.4C27.3062 35.6 23.6063 24.7 19.9062 25.9C16.0063 27.1 21.1063 42 21.1063 42C21.1063 42 18.9062 36 18.4062 32.8C18.0063 30.9 17.8062 28.6 18.5063 26.7C16.3062 30 18.3062 35.4 19.3062 38.7C19.2062 38.4 19.1063 38.1 19.0063 37.8C18.6063 36.7 18.3062 35.5 18.0063 34.3C17.7063 33.1 17.5063 31.9 17.3062 30.7C17.3062 31.9 17.5062 33.1 17.7062 34.3C17.9062 35.5 18.2063 36.7 18.5063 37.9C18.7063 38.6 18.9062 39.3 19.1063 40C18.8063 39.3 18.5063 38.5 18.3062 37.8C17.9062 36.7 17.6062 35.6 17.3062 34.4C17.0063 33.3 16.8062 32.1 16.7062 30.9C16.7062 32.1 16.9062 33.3 17.1063 34.4C17.3063 35.6 17.6063 36.7 17.9062 37.9C18.1063 38.7 18.3063 39.4 18.6063 40.2C18.3063 39.5 18.0063 38.7 17.8062 38C17.4062 36.9 17.1062 35.8 16.8062 34.6C16.5063 33.5 16.3063 32.3 16.1063 31.1C16.2063 32.3 16.3062 33.5 16.5063 34.6C16.7063 35.8 17.0063 36.9 17.3062 38.1C17.5063 38.9 17.7063 39.6 18.0063 40.4C17.7063 39.7 17.4062 38.9 17.2062 38.2C16.8062 37.1 16.5062 36 16.2062 34.8C15.9062 33.7 15.7063 32.5 15.5063 31.3C15.6063 32.5 15.7063 33.7 15.9062 34.8C16.1063 36 16.4062 37.1 16.7062 38.3C16.9062 39.1 17.2062 39.8 17.4062 40.6C17.1063 39.9 16.8063 39.1 16.6063 38.4C16.2063 37.3 15.9062 36.2 15.6062 35C15.3062 33.9 15.1062 32.7 14.9062 31.5C15.0063 32.7 15.1062 33.9 15.4062 35C15.6062 36.2 15.9062 37.3 16.2062 38.4C16.4062 39.2 16.7062 39.9 16.9062 40.7C16.6063 40 16.3063 39.2 16.1063 38.5C15.7063 37.4 15.3063 36.3 15.0063 35.1C14.7063 34 14.4062 32.8 14.3062 31.6C14.4062 32.8 14.5062 34 14.8062 35.1C15.0062 36.3 15.3062 37.4 15.6062 38.5C15.8062 39.3 16.1062 40 16.3062 40.8C16.0063 40.1 15.7063 39.3 15.4062 38.6C15.0063 37.5 14.6062 36.4 14.3062 35.2C14.0062 34.1 13.7063 32.9 13.6062 31.7C13.7063 32.9 13.8062 34.1 14.1062 35.2C14.3062 36.4 14.6063 37.5 15.0063 38.6C15.2063 39.4 15.5063 40.1 15.7063 40.9C15.4062 40.2 15.1062 39.4 14.8062 38.7C14.4062 37.6 14.0063 36.5 13.7063 35.3C13.4062 34.2 13.1063 33 13.0063 31.8C13.1063 33 13.3063 34.2 13.5063 35.3C13.7063 36.5 14.0063 37.6 14.4062 38.7C14.6062 39.5 14.9062 40.2 15.1062 41C14.8062 40.3 14.5063 39.5 14.2063 38.8C13.8063 37.7 13.4062 36.6 13.1062 35.5C12.8062 34.4 12.5063 33.2 12.4062 32C12.5063 33.2 12.7063 34.4 12.9062 35.5C13.1062 36.7 13.4062 37.8 13.8062 38.9C14.0062 39.7 14.3063 40.4 14.5063 41.2C14.2063 40.5 13.9062 39.7 13.6062 39C13.2063 37.9 12.8063 36.8 12.5063 35.7C12.2063 34.6 11.9062 33.4 11.7063 32.2C11.8063 33.4 12.0063 34.6 12.2063 35.7C12.4062 36.9 12.8062 38 13.1062 39.1C13.3062 39.9 13.6062 40.6 13.9062 41.4C13.6062 40.7 13.3063 39.9 13.0063 39.2C12.6063 38.1 12.2063 37 11.9062 35.9C11.6062 34.8 11.3062 33.6 11.1062 32.4C11.2063 33.6 11.4062 34.8 11.6062 35.9C11.9062 37.1 12.2063 38.2 12.5063 39.3C12.7063 40.1 13.0062 40.8 13.3062 41.6C13.0062 40.9 12.7063 40.1 12.4062 39.4C12.0063 38.3 11.6062 37.2 11.3062 36.1C11.0062 35 10.7063 33.8 10.5063 32.6C10.6063 33.8 10.8063 35 11.0063 36.1C11.3063 37.3 11.6062 38.4 11.9062 39.5V39.4C11.2063 37.1 8.80625 30.8 11.3062 28.8C13.3062 27.8 15.3062 26.9 17.3062 26C15.2062 26.7 13.2062 27.5 11.1062 28.3C10.2063 28.7 9.80625 29.8 9.80625 31.5C8.20625 32.1 6.70625 32.8 5.20625 33.5C4.40625 33.8 4.10625 34.9 4.20625 36.3C2.90625 36.9 2.20625 37.2 0.90625 37.9C-1.69375 40.4 2.00625 46.8 3.20625 49.1C4.40625 51.4 7.30625 58 10.6062 57.8C11.8062 57.2 12.3063 57 13.5063 56.4C14.5063 57.4 15.4062 57.9 16.0063 57.6C17.6063 56.9 18.3062 56.6 19.9062 55.9C21.0063 57.1 22.0062 57.7 22.7062 57.4C24.7062 56.6 26.8062 55.8 28.8062 55.1C29.0063 55 29.3062 54.9 29.7062 54.8H29.8062C33.0062 53.3 29.7063 42.6 29.0063 39.9C59.1063 31 90.7063 31 120.806 39.9C120.006 42.8 116.806 53.2 120.006 54.8H120.106C120.506 54.9 120.806 55 121.006 55.1C123.106 55.8 125.106 56.6 127.106 57.4C127.806 57.7 128.806 57.1 129.906 55.9C131.506 56.5 132.306 56.9 133.806 57.6C134.406 57.9 135.306 57.4 136.306 56.4C137.506 56.9 138.006 57.2 139.206 57.8C142.506 58 145.406 51.4 146.606 49.1C147.906 46.8 151.606 40.4 149.006 37.9ZM4.80625 41.6C5.00625 42.4 5.30625 43.2 5.60625 44C5.80625 44.5 6.00625 45.1 6.20625 45.6C5.90625 45 5.70625 44.5 5.50625 44C5.20625 43.2 4.90625 42.5 4.60625 41.7C4.30625 40.9 4.10625 40.1 3.90625 39.3C4.00625 40.1 4.20625 41 4.40625 41.8C4.60625 42.6 4.90625 43.4 5.20625 44.2C5.40625 44.7 5.60625 45.3 5.80625 45.8C5.60625 45.3 5.30625 44.8 5.10625 44.3C4.80625 43.5 4.50625 42.8 4.20625 42C3.90625 41.2 3.70625 40.4 3.50625 39.6C3.60625 40.4 3.80625 41.3 4.00625 42.1C4.20625 42.9 4.50625 43.7 4.80625 44.5C5.00625 45 5.20625 45.6 5.40625 46.1C5.20625 45.6 4.90625 45.1 4.70625 44.6C4.40625 43.8 4.00625 43.1 3.80625 42.3C3.50625 41.5 3.30625 40.7 3.10625 39.9C3.20625 40.7 3.40625 41.6 3.60625 42.4C3.80625 43.2 4.10625 44 4.40625 44.8C4.60625 45.3 4.80625 45.8 5.00625 46.4C4.70625 45.9 4.50625 45.4 4.30625 44.9C4.00625 44.1 3.60625 43.4 3.40625 42.6C3.10625 41.8 2.90625 41 2.70625 40.2C2.80625 41 3.00625 41.8 3.20625 42.7C3.40625 43.5 3.70625 44.3 4.00625 45.1C4.20625 45.6 4.40625 46.1 4.60625 46.7C4.30625 46.2 4.10625 45.7 3.90625 45.2C3.50625 44 3.20625 43.3 2.90625 42.5C2.60625 41.7 2.40625 40.9 2.20625 40.1C2.30625 40.9 2.50625 41.7 2.70625 42.5C2.90625 43.3 3.20625 44.1 3.50625 44.9C3.70625 45.4 3.90625 45.9 4.10625 46.5C3.80625 46 3.60625 45.5 3.40625 45C3.10625 44.3 2.70625 43.5 2.50625 42.7C2.20625 41.9 2.00625 41.1 1.80625 40.3C1.90625 41.1 2.10625 41.9 2.40625 42.7C2.60625 43.5 2.90625 44.3 3.20625 45.1C3.40625 45.6 3.60625 46.1 3.80625 46.7C3.50625 46.2 3.30625 45.7 3.10625 45.2C2.80625 44.5 2.40625 43.7 2.10625 42.9C1.80625 42.1 1.60625 41.3 1.40625 40.5C1.50625 41.3 1.70625 42.1 2.00625 42.9C2.20625 43.7 2.50625 44.5 2.80625 45.3C3.00625 45.8 3.20625 46.3 3.40625 46.9C3.10625 46.4 2.90625 45.9 2.70625 45.4C2.40625 44.7 2.00625 43.9 1.70625 43.1C1.40625 42.3 1.20625 41.5 1.00625 40.7C1.10625 41.5 1.30625 42.3 1.60625 43.1C1.80625 43.9 2.10625 44.7 2.40625 45.5C2.60625 46 2.80625 46.5 3.00625 47.1C2.70625 46.6 2.50625 46.1 2.30625 45.6C1.90625 44.9 1.60625 44.1 1.30625 43.3C1.00625 42.5 0.80625 41.7 0.60625 40.9C0.70625 41.7 0.90625 42.5 1.20625 43.3C1.40625 44.1 1.70625 44.9 2.00625 45.7C2.00625 45.7 2.00625 45.7 2.00625 45.6C1.30625 43.7 -0.39375 40.2 1.00625 38.2C2.30625 37.4 2.90625 37.1 4.20625 36.3C4.30625 38.3 4.90625 40.4 5.60625 42.3C5.80625 42.8 5.90625 43.2 6.10625 43.7C6.30625 44.2 6.50625 44.8 6.70625 45.3C6.50625 44.8 6.20625 44.3 6.00625 43.8C5.70625 43 5.40625 42.3 5.10625 41.5C4.80625 40.7 4.60625 39.9 4.40625 39.1C4.40625 40 4.60625 40.8 4.80625 41.6ZM10.3062 37.8C10.5062 38.8 10.8062 39.7 11.1062 40.7C11.3062 41.3 11.5062 42 11.8062 42.6C11.5062 42 11.3063 41.4 11.0063 40.8C10.6063 39.9 10.3063 39 10.0063 38C9.70625 37.1 9.50625 36.1 9.30625 35.1C9.40625 36.1 9.60625 37.1 9.80625 38.1C10.0062 39.1 10.3062 40 10.6062 41C10.8062 41.6 11.0062 42.3 11.3062 42.9C11.0062 42.3 10.8063 41.7 10.5063 41.1C10.1063 40.2 9.80625 39.3 9.50625 38.3C9.20625 37.4 9.00625 36.4 8.80625 35.4C8.90625 36.4 9.10625 37.4 9.30625 38.4C9.50625 39.4 9.80625 40.3 10.1062 41.3C10.3062 41.9 10.5062 42.6 10.8062 43.2C10.5062 42.6 10.3063 42 10.0063 41.4C9.60625 40.5 9.30625 39.6 9.00625 38.6C8.70625 37.7 8.50625 36.7 8.30625 35.7C8.40625 36.7 8.60625 37.7 8.80625 38.7C9.00625 39.7 9.30625 40.6 9.60625 41.6C9.80625 42.2 10.0062 42.9 10.3062 43.5C10.0062 42.9 9.80625 42.3 9.50625 41.7C9.10625 40.8 8.80625 39.9 8.50625 38.9C8.20625 38 7.90625 37 7.80625 36C7.90625 37 8.10625 38 8.30625 39C8.50625 40 8.80625 40.9 9.10625 41.9C9.30625 42.5 9.50625 43.2 9.80625 43.8C9.50625 43.2 9.30625 42.6 9.00625 42C8.60625 41.1 8.30625 40.2 8.00625 39.2C7.70625 38.3 7.40625 37.3 7.30625 36.3C7.40625 37.3 7.60625 38.3 7.80625 39.3C8.00625 40.3 8.30625 41.2 8.60625 42.2C8.90625 42.4 9.10625 43 9.30625 43.7C9.00625 43.1 8.70625 42.5 8.50625 41.9C8.10625 41 7.80625 40.1 7.50625 39.1C7.20625 38.2 6.90625 37.2 6.80625 36.2C6.90625 37.2 7.10625 38.2 7.40625 39.2C7.60625 40.2 7.90625 41.1 8.30625 42.1C8.50625 42.7 8.80625 43.4 9.00625 44C8.70625 43.4 8.40625 42.8 8.20625 42.2C7.80625 41.3 7.50625 40.4 7.20625 39.4C6.90625 38.5 6.60625 37.5 6.50625 36.5C6.60625 37.5 6.80625 38.5 7.10625 39.4C7.30625 40.4 7.60625 41.3 8.00625 42.3C8.20625 42.9 8.50625 43.6 8.70625 44.2C8.40625 43.6 8.10625 43 7.90625 42.4C7.50625 41.5 7.20625 40.6 6.80625 39.6C6.50625 38.7 6.20625 37.7 6.00625 36.7C6.10625 37.7 6.30625 38.7 6.60625 39.6C6.90625 40.6 7.10625 41.5 7.50625 42.5C7.70625 43.1 8.00625 43.8 8.20625 44.4C7.90625 43.8 7.60625 43.2 7.40625 42.6C7.00625 41.7 6.70625 40.8 6.30625 39.8C6.00625 38.9 5.70625 37.9 5.50625 36.9C5.60625 37.9 5.80625 38.9 6.10625 39.8C6.40625 40.8 6.70625 41.7 7.00625 42.7C7.20625 43.3 7.50625 44 7.70625 44.6C7.40625 44 7.10625 43.4 6.90625 42.8C6.20625 41.8 5.90625 40.9 5.50625 40C5.20625 39 4.90625 38.1 4.80625 37.1C4.90625 38.1 5.10625 39.1 5.40625 40C5.70625 41 6.00625 41.9 6.30625 42.8V42.7C5.60625 40.8 3.50625 35.8 5.40625 33.8C6.90625 33 8.40625 32.2 9.90625 31.5C9.90625 34.4 10.8062 37.3 11.6062 40C11.9062 41 12.0062 41.4 12.3062 42.4C12.0062 41.8 11.8063 41.2 11.5063 40.5C11.1063 39.6 10.8063 38.6 10.5063 37.7C10.2063 36.8 10.0062 35.8 9.80625 34.8C9.80625 35.9 10.0062 36.9 10.3062 37.8ZM30.3062 52.8C30.4062 52.4 30.4062 52 30.5063 51.6C30.5063 53.3 30.3062 54.3 29.7062 54.5H29.6063C29.6063 54.5 29.7062 54.5 29.7062 54.4L29.8062 54.3C29.9062 54.2 29.9062 54.1 29.9062 54.1C30.0063 54 30.0063 53.8 30.1063 53.7C30.1063 53.3 30.2062 53 30.3062 52.8ZM29.9062 46.4C30.0063 46.8 30.0063 47.3 30.0063 47.7C30.0063 47.6 30.0063 47.5 30.0063 47.4C29.9062 46.5 29.7063 45.6 29.5063 44.7C29.3062 43.8 29.1062 42.9 28.8062 42.1C29.2062 43.9 29.5063 45.7 29.8062 47.4C29.9062 48.2 30.0063 49 30.0063 49.9C30.0063 49.6 29.9062 49.3 29.9062 49C29.8062 48.2 29.7063 47.5 29.5063 46.7C29.3062 46 29.2063 45.2 29.0063 44.5C29.1063 45 29.1062 45.2 29.2062 45.6C29.3062 46 29.3062 46.4 29.4062 46.7C29.5063 47.5 29.6062 48.2 29.7062 49C29.8062 49.6 29.9062 50.2 29.9062 50.8C29.9062 51 29.9062 51.2 29.8062 51.4C29.8062 51.5 29.8062 51.5 29.8062 51.5C29.8062 51.5 29.8062 51.6 29.7062 51.6C29.7062 51.6 29.7063 51.7 29.6063 51.7L29.5063 51.8C29.4062 51.8 29.4062 51.9 29.3062 51.8C29.2062 51.8 29.1063 51.8 29.1063 51.7C28.8063 51.5 28.5062 51.1 28.2062 50.8C27.9062 50.5 27.7062 50.1 27.4062 49.7C26.9062 48.9 26.5063 48.1 26.1063 47.3C25.3063 45.7 24.6063 44 23.9062 42.3C23.3062 40.6 22.7062 38.9 22.2062 37.2C21.7062 35.5 21.2063 33.7 21.0063 31.9C20.9062 31 20.8062 30.1 20.8062 29.2C20.8062 28.8 20.8062 28.3 21.0063 27.9C21.1063 27.7 21.2062 27.5 21.3062 27.4C21.5063 27.3 21.7062 27.3 21.9062 27.4C22.3062 27.6 22.7063 27.9 23.0063 28.3C23.3062 28.6 23.6062 29 23.8062 29.4C24.1062 29.8 24.3062 30.2 24.5063 30.6C24.7063 31 25.0062 31.4 25.2062 31.8C24.8062 31 24.4062 30.2 23.9062 29.4C23.7062 29 23.4062 28.6 23.1063 28.3C23.0063 28.1 22.8063 27.9 22.6063 27.8C22.4062 27.6 22.2063 27.5 22.0063 27.4C21.9062 27.3 21.7063 27.3 21.6063 27.3C21.5063 27.3 21.4062 27.3 21.3062 27.3H21.2062C21.2062 27.3 21.1063 27.3 21.1063 27.4C20.8063 27.6 20.7063 27.9 20.6063 28.1C20.4062 28.6 20.4062 29.1 20.4062 29.5C20.4062 30.4 20.4062 31.4 20.6063 32.3C21.1063 35.9 22.2063 39.4 23.5063 42.8C24.1063 44.5 24.9062 46.2 25.7062 47.8C25.8062 48 26.0063 48.3 26.1063 48.5C25.5063 47.6 25.1063 46.6 24.6063 45.6C25.0063 46.6 25.5063 47.7 26.0063 48.6C26.5063 49.6 27.1063 50.6 27.9062 51.4C28.1063 51.6 28.3062 51.9 28.5063 52.1C28.4062 52 28.3062 52 28.2062 51.9C27.4062 51.1 26.8062 50.2 26.2062 49.2C25.6062 48.3 25.1063 47.3 24.6063 46.2C25.0063 47.2 25.5063 48.3 26.0063 49.2C26.5063 50.2 28.0063 52.2 28.0063 52.2C28.0063 52.2 26.8062 50.7 26.3062 49.8C25.7062 48.9 25.2062 47.9 24.7062 46.8C25.1062 47.8 25.6063 48.9 26.1063 49.8C26.4062 50.4 26.8062 51 27.2062 51.6C26.9062 51.2 26.6062 50.7 26.3062 50.2C25.7062 49.3 25.2062 48.3 24.7062 47.2C24.9062 47.8 25.2063 48.4 25.5063 49C24.0063 46.3 22.8062 43.5 21.8062 40.7C20.7062 37.6 17.4062 26.2 20.2062 25.2C22.7062 24.3 26.9062 34.7 27.9062 37.3C27.3062 37.5 27.0063 37.6 26.4062 37.8C26.0063 36.9 25.5063 36 25.0063 36.2C23.9062 36.9 24.5063 39.1 24.9062 40C24.9062 40.1 24.9062 40.1 25.0063 40.2C24.9062 40 24.8062 39.8 24.7062 39.6C24.6062 39.2 24.4062 38.9 24.3062 38.5C24.4062 38.9 24.5063 39.3 24.6063 39.7C24.6063 39.8 24.7062 40 24.7062 40.1C24.6062 40 24.6063 39.9 24.6063 39.7C24.5063 39.3 24.3062 39 24.2062 38.6C24.3062 39 24.4062 39.4 24.5063 39.8C24.5063 39.9 24.6063 40.1 24.6063 40.2C24.5063 40.1 24.5063 40 24.5063 39.8C24.4062 39.4 24.2063 39.1 24.1063 38.7C24.2063 39.1 24.3062 39.5 24.4062 39.9V40C24.0063 38.7 23.9062 37.8 24.0063 37.6C24.2063 37.3 24.3063 37.2 24.6063 36.9C24.3063 37 24.1062 37.1 23.8062 37.2C23.0063 37.5 23.7063 39.7 24.0063 40.6C24.3062 41.5 25.2062 43.7 25.9062 43.4C26.3062 43.2 26.6063 43.2 27.0063 43C27.5063 42.8 27.4062 41.8 27.2062 40.8C27.8062 40.6 28.1062 40.5 28.7062 40.3C29.0062 42.3 29.5063 44.3 29.9062 46.4ZM25.7062 39.8C25.8062 40.2 26.0063 40.5 26.1063 40.8C26.1063 40.9 26.3062 40.9 26.4062 40.9C26.4062 41 26.4062 41 26.4062 41.1C26.4062 41.1 26.4062 41.1 26.4062 41.2V41.3C26.4062 41.3 26.4062 41.3 26.4062 41.4V41.5C26.4062 41.5 26.4062 41.5 26.4062 41.6V41.7V41.8V41.9V42C26.4062 42 26.4062 42 26.4062 42.1C26.1063 41.8 25.7062 41 25.3062 39.7C24.9062 38.4 24.8062 37.5 24.8062 37.1C24.8062 37.1 24.8062 37.1 24.9062 37.2C24.9062 37.2 24.9062 37.3 25.0063 37.3C25.0063 37.3 25.0063 37.4 25.1063 37.4C25.1063 37.4 25.1062 37.5 25.2062 37.5C25.2062 37.5 25.3062 37.6 25.3062 37.7C25.3062 37.7 25.3062 37.8 25.4062 37.8C25.4062 37.8 25.4062 37.8 25.4062 37.9C25.4062 37.9 25.4062 38 25.5063 38C25.5063 38 25.5063 38 25.5063 38.1C25.5063 38.1 25.5063 38.1 25.5063 38.2C25.4062 38.2 25.3062 38.3 25.3062 38.4C25.4062 39 25.5062 39.4 25.7062 39.8ZM26.5063 39.5C26.2063 39.6 25.9062 39.5 25.8062 39.2C25.7062 38.9 25.9062 38.7 26.2062 38.6C58.0062 28.7 91.6062 28.7 123.406 38.5C123.706 38.6 123.906 38.9 123.806 39.1C123.706 39.4 123.406 39.5 123.106 39.4C91.5062 29.6 58.1063 29.6 26.5063 39.5ZM124.206 38.5C124.206 38.4 124.206 38.4 124.206 38.5C124.206 38.4 124.206 38.4 124.306 38.4C124.306 38.4 124.306 38.3 124.406 38.3C124.406 38.3 124.406 38.3 124.406 38.2C124.406 38.1 124.406 38.1 124.506 38.1C124.506 38 124.606 38 124.606 37.9C124.606 37.9 124.606 37.8 124.706 37.8C124.706 37.8 124.706 37.7 124.806 37.7C124.806 37.7 124.806 37.6 124.906 37.6C124.906 37.6 124.906 37.5 125.006 37.5C125.006 37.9 124.906 38.8 124.506 40.1C124.106 41.4 123.606 42.2 123.406 42.5C123.406 42.5 123.406 42.5 123.406 42.4C123.406 42.4 123.406 42.4 123.406 42.3V42.2V42.1V42C123.406 42 123.406 42 123.406 41.9V41.8C123.406 41.8 123.406 41.8 123.406 41.7V41.6C123.406 41.6 123.406 41.6 123.406 41.5C123.406 41.4 123.406 41.4 123.406 41.3C123.506 41.3 123.606 41.3 123.606 41.2C123.706 40.9 123.906 40.6 124.006 40.2C124.106 39.8 124.206 39.4 124.306 39.1C124.406 38.6 124.306 38.5 124.206 38.5ZM120.206 54.5C119.606 54.3 119.406 53.3 119.406 51.6C119.406 52 119.506 52.4 119.606 52.8C119.606 53.1 119.706 53.4 119.806 53.7C119.806 53.8 119.906 54 120.006 54.1C120.006 54.2 120.106 54.3 120.106 54.3C120.106 54.3 120.106 54.4 120.206 54.5C120.206 54.4 120.206 54.4 120.206 54.5C120.306 54.5 120.206 54.5 120.206 54.5ZM124.506 49.5C124.806 48.9 125.006 48.3 125.306 47.7C124.806 48.7 124.306 49.7 123.706 50.7C123.406 51.2 123.106 51.6 122.806 52.1C123.206 51.5 123.506 50.9 123.906 50.3C124.406 49.3 124.906 48.3 125.306 47.3C124.806 48.3 124.306 49.3 123.706 50.3C123.206 51.1 122.006 52.7 122.006 52.7C122.006 52.7 123.406 50.7 124.006 49.7C124.506 48.7 125.006 47.7 125.406 46.7C124.906 47.7 124.406 48.7 123.806 49.7C123.206 50.6 122.606 51.6 121.806 52.4C121.706 52.5 121.606 52.6 121.506 52.6C121.706 52.4 121.906 52.1 122.106 51.9C122.906 51 123.406 50.1 124.006 49.1C124.506 48.1 125.006 47.1 125.406 46.1C125.006 47.1 124.506 48 123.906 49C124.006 48.8 124.206 48.5 124.306 48.3C125.106 46.7 125.906 45 126.506 43.3C127.806 39.9 128.906 36.4 129.406 32.8C129.506 31.9 129.606 31 129.606 30C129.606 29.5 129.506 29 129.406 28.6C129.306 28.4 129.206 28.1 128.906 27.9C128.906 27.9 128.806 27.9 128.806 27.8H128.706C128.606 27.8 128.506 27.8 128.406 27.8C128.206 27.8 128.106 27.9 128.006 27.9C127.806 28 127.606 28.2 127.406 28.3C127.206 28.5 127.106 28.6 126.906 28.8C126.606 29.2 126.406 29.5 126.106 29.9C125.606 30.7 125.206 31.5 124.806 32.3C125.006 31.9 125.206 31.5 125.506 31.1C125.706 30.7 126.006 30.3 126.206 29.9C126.506 29.5 126.706 29.2 127.006 28.8C127.306 28.5 127.606 28.1 128.106 27.9C128.306 27.8 128.506 27.8 128.706 27.9C128.906 28 129.006 28.2 129.006 28.4C129.106 28.8 129.206 29.3 129.206 29.7C129.206 30.6 129.106 31.5 129.006 32.4C128.706 34.2 128.306 36 127.806 37.7C127.306 39.4 126.706 41.2 126.106 42.8C125.506 44.5 124.706 46.2 123.906 47.8C123.506 48.6 123.106 49.4 122.606 50.2C122.406 50.6 122.106 51 121.806 51.3C121.506 51.6 121.206 52 120.906 52.2C120.806 52.2 120.706 52.3 120.706 52.3C120.606 52.3 120.606 52.3 120.506 52.3L120.406 52.2L120.306 52.1C120.306 52.1 120.306 52 120.206 52V51.9C120.106 51.7 120.106 51.5 120.106 51.3C120.106 50.7 120.206 50.1 120.306 49.5C120.406 48.8 120.506 48 120.606 47.2C120.706 46.8 120.706 46.4 120.806 46.1C120.906 45.6 120.906 45.4 121.006 45C120.806 45.7 120.606 46.5 120.506 47.2C120.306 47.9 120.206 48.7 120.106 49.5C120.106 49.8 120.006 50.1 120.006 50.4C120.006 49.6 120.106 48.8 120.206 47.9C120.406 46.1 120.806 44.3 121.206 42.6C120.906 43.5 120.706 44.3 120.506 45.2C120.306 46.1 120.106 47 120.006 47.9C120.006 48 120.006 48.1 120.006 48.2C120.006 47.8 120.006 47.3 120.106 46.9C120.506 44.8 121.006 42.8 121.606 40.7C122.206 40.9 122.506 41 123.106 41.2C122.906 42.2 122.806 43.2 123.306 43.4C123.706 43.5 124.006 43.6 124.406 43.8C125.206 44.1 126.006 41.9 126.306 41C126.606 40.1 127.306 37.8 126.506 37.6C126.206 37.5 126.006 37.4 125.706 37.3C125.906 37.6 126.006 37.7 126.306 38C126.406 38.2 126.306 39.1 125.906 40.4V40.3C126.006 39.9 126.106 39.5 126.206 39.1C126.106 39.5 125.906 39.9 125.806 40.2C125.806 40.3 125.706 40.4 125.706 40.6C125.706 40.5 125.806 40.3 125.806 40.2C125.906 39.8 126.006 39.4 126.106 39C126.006 39.4 125.806 39.8 125.706 40.1C125.706 40.2 125.606 40.3 125.606 40.5C125.606 40.4 125.706 40.2 125.706 40.1C125.806 39.7 125.906 39.3 126.006 38.9C125.906 39.3 125.706 39.7 125.606 40C125.506 40.2 125.406 40.4 125.306 40.6C125.306 40.5 125.406 40.4 125.406 40.4C125.706 39.5 126.406 37.2 125.606 37C125.106 36.8 124.506 37.7 124.206 38.6C123.606 38.4 123.306 38.3 122.706 38.1C123.806 35.1 127.806 25.2 130.406 26C133.106 26.8 129.806 38.6 128.806 41.5C127.206 44 125.906 46.8 124.506 49.5ZM142.406 44.5C142.706 43.9 142.906 43.2 143.106 42.6C143.406 41.7 143.706 40.7 144.006 39.7C144.306 38.7 144.506 37.8 144.606 36.8C144.406 37.8 144.106 38.7 143.806 39.7C143.506 40.6 143.106 41.6 142.706 42.5C142.406 43.1 142.206 43.7 141.906 44.3C142.106 43.7 142.406 43 142.606 42.4C142.906 41.5 143.206 40.5 143.506 39.5C143.806 38.5 144.006 37.6 144.106 36.6C143.906 37.6 143.706 38.5 143.306 39.5C143.006 40.4 142.606 41.4 142.206 42.3C141.906 42.9 141.706 43.5 141.406 44.1C141.606 43.5 141.906 42.8 142.106 42.2C142.406 41.3 142.706 40.3 143.006 39.3C143.206 38.3 143.406 37.4 143.606 36.4C143.406 37.4 143.206 38.3 142.906 39.3C142.606 40.2 142.206 41.2 141.906 42.1C141.606 42.7 141.406 43.3 141.106 43.9C141.306 43.3 141.606 42.6 141.806 42C142.106 41.1 142.406 40.1 142.706 39.1C142.906 38.1 143.106 37.2 143.306 36.1C143.106 37.1 142.906 38 142.606 39C142.306 39.9 141.906 40.9 141.606 41.8C141.306 42.4 141.106 43 140.806 43.6C141.006 43 141.306 42.3 141.506 41.7C141.806 40.8 142.106 39.8 142.306 38.8C142.506 37.8 142.706 36.8 142.806 35.8C142.606 36.8 142.406 37.7 142.106 38.7C141.806 39.6 141.506 40.6 141.106 41.5C140.806 42.1 140.606 42.7 140.306 43.3C140.506 42.7 140.806 42 141.006 41.4C141.306 40.5 141.606 39.5 141.806 38.5C142.006 37.5 142.206 36.5 142.306 35.5C142.106 36.5 141.906 37.4 141.606 38.4C141.306 39.3 141.006 40.3 140.606 41.2C140.306 41.8 140.106 42.4 139.806 43C140.006 42.4 140.306 41.7 140.506 41.1C140.806 40.2 141.106 39.2 141.306 38.2C141.506 37.2 141.706 36.2 141.806 35.2C141.606 36.2 141.406 37.1 141.106 38.1C140.806 39 140.506 40 140.106 40.9C139.806 41.5 139.606 42.1 139.306 42.7C139.506 42.1 139.806 41.4 140.006 40.8C140.306 39.9 140.606 38.9 140.806 37.9C141.006 36.9 141.206 35.9 141.306 34.9C141.106 35.9 140.906 36.9 140.606 37.8C140.306 38.7 140.006 39.7 139.606 40.6C139.406 41.2 139.106 41.8 138.806 42.4C139.006 41.8 139.306 41.1 139.506 40.5C139.806 39.6 140.106 38.6 140.306 37.6C140.506 36.6 140.706 35.6 140.806 34.6C140.606 35.6 140.406 36.6 140.106 37.5C139.806 38.4 139.506 39.4 139.106 40.3C138.906 40.9 138.606 41.5 138.306 42.1C138.506 41.5 138.806 40.8 139.006 40.2C139.306 39.3 139.606 38.3 139.806 37.3C140.006 36.3 140.206 35.3 140.306 34.3C140.106 35.3 139.906 36.3 139.606 37.2C139.306 38.1 139.006 39.1 138.606 40C138.406 40.6 138.106 41.2 137.806 41.9C138.106 40.9 138.206 40.5 138.506 39.5C139.406 36.7 140.206 33.9 140.206 31C141.706 31.8 143.206 32.5 144.706 33.3C146.606 35.2 144.406 40.2 143.806 42.2V42.3C144.106 41.4 144.406 40.4 144.706 39.5C145.006 38.5 145.206 37.6 145.306 36.6C145.106 37.6 144.806 38.5 144.506 39.5C144.206 40.4 143.806 41.4 143.406 42.3C142.906 43.3 142.606 43.9 142.406 44.5ZM147.806 45.6C147.806 45.7 147.806 45.7 147.806 45.6C147.806 45.7 147.806 45.7 147.806 45.6C148.106 44.9 148.406 44.1 148.606 43.3C148.806 42.5 149.006 41.7 149.206 40.9C149.006 41.7 148.806 42.5 148.506 43.3C148.206 44.1 147.906 44.8 147.506 45.6C147.306 46.1 147.006 46.6 146.806 47.1C147.006 46.6 147.206 46.1 147.406 45.5C147.706 44.7 148.006 43.9 148.206 43.1C148.406 42.3 148.606 41.5 148.806 40.7C148.606 41.5 148.406 42.3 148.106 43.1C147.806 43.9 147.506 44.6 147.106 45.4C146.906 45.9 146.606 46.4 146.406 46.9C146.606 46.4 146.806 45.9 147.006 45.3C147.306 44.5 147.606 43.7 147.806 42.9C148.006 42.1 148.206 41.3 148.406 40.5C148.206 41.3 148.006 42.1 147.706 42.9C147.406 43.7 147.106 44.4 146.706 45.2C146.506 45.7 146.206 46.2 146.006 46.7C146.206 46.2 146.406 45.7 146.606 45.1C146.906 44.3 147.206 43.5 147.406 42.7C147.606 41.9 147.806 41.1 148.006 40.3C147.806 41.1 147.606 41.9 147.306 42.7C147.006 43.5 146.706 44.2 146.406 45C146.206 45.5 145.906 46 145.706 46.5C145.906 46 146.106 45.5 146.306 44.9C146.606 44.1 146.906 43.3 147.106 42.5C147.306 41.7 147.506 40.9 147.606 40.1C147.406 40.9 147.206 41.7 146.906 42.5C146.606 43.3 146.306 44 146.006 44.8C145.806 45.3 145.506 45.8 145.306 46.3C145.506 45.8 145.706 45.3 145.906 44.7C146.206 43.9 146.506 43.1 146.706 42.3C146.906 41.5 147.106 40.7 147.206 39.8C147.006 40.6 146.806 41.4 146.506 42.2C146.206 43 145.906 43.7 145.606 44.5C145.406 45 145.106 45.5 144.906 46C145.106 45.5 145.306 45 145.506 44.4C145.806 43.6 146.106 42.8 146.306 42C146.506 41.2 146.706 40.4 146.806 39.5C146.606 40.3 146.406 41.1 146.106 41.9C145.806 42.7 145.506 43.4 145.206 44.2C145.006 44.7 144.706 45.2 144.506 45.7C144.706 45.2 144.906 44.7 145.106 44.1C145.406 43.3 145.706 42.5 145.906 41.7C146.106 40.9 146.306 40.1 146.406 39.2C146.206 40 146.006 40.8 145.706 41.6C145.406 42.4 145.106 43.1 144.806 43.9C144.606 44.4 144.306 44.9 144.106 45.4C144.306 44.9 144.506 44.4 144.706 43.8C145.006 43 145.206 42.2 145.506 41.4C145.706 40.6 145.906 39.8 146.006 38.9C145.806 39.7 145.606 40.5 145.306 41.3C145.006 42.1 144.706 42.8 144.406 43.6C144.206 44.1 143.906 44.6 143.706 45.1C143.906 44.6 144.106 44.1 144.306 43.5C144.606 42.7 144.806 41.9 145.106 41.1C145.306 40.3 145.506 39.5 145.606 38.6C145.406 39.4 145.206 40.2 144.906 41C144.606 41.8 144.306 42.6 144.006 43.3C143.806 43.8 143.506 44.3 143.306 44.8C143.506 44.3 143.706 43.8 143.906 43.2C144.106 42.7 144.206 42.3 144.406 41.8C145.006 39.9 145.706 37.9 145.806 35.8C147.106 36.5 147.706 36.9 149.006 37.7C150.306 40.1 148.506 43.8 147.806 45.6ZM37.2062 33C36.4062 29.5 35.7062 25.9 34.9062 22.4C35.8063 22.2 36.3062 22.1 37.2062 21.9C41.4062 21 44.1063 17.9 43.2062 13.5C43.0062 12 42.8063 11.3 42.6063 9.8C42.0063 5.1 37.9062 3.3 33.6063 4.2C31.0063 4.7 28.4062 5.3 25.9062 5.9C28.2062 15.3 30.4062 24.7 32.7062 34.1C34.5062 33.6 35.4062 33.4 37.2062 33ZM34.4062 8.2C36.0062 7.9 37.1063 8.4 37.4062 10.4C37.7062 12.1 37.9062 13 38.2062 14.7C38.6063 16.7 37.9062 17.5 36.3063 17.9C35.4062 18.1 34.9062 18.2 34.0062 18.4C33.3062 15.2 32.6063 12 31.9062 8.8C33.0062 8.5 33.5062 8.4 34.4062 8.2ZM47.0062 24.1C47.6062 28.2 50.8062 30.9 55.0062 30.4C59.2062 29.9 61.8063 26.7 61.4062 22.5C61.0062 17.5 60.7063 12.5 60.3063 7.5C60.1063 2.7 56.0062 0.6 51.7062 1C47.2062 1.4 44.1063 4.7 44.7062 9.3C45.5062 14.2 46.3062 19.2 47.0062 24.1ZM52.2062 5.1C53.9062 4.9 55.0062 5.6 55.2062 7.7C55.7062 12.9 56.2062 18.1 56.7062 23.3C56.9062 25.4 56.0063 26.2 54.6063 26.4C53.1063 26.6 52.1063 25.9 51.8063 23.9C51.2063 18.7 50.5062 13.6 49.9062 8.4C49.6063 6.2 50.6063 5.3 52.2062 5.1ZM73.5062 29C74.0062 23.8 74.6063 18.7 75.2063 13.6C75.8063 18.7 76.4062 23.9 76.9062 29C78.9062 29 81.0062 29.1 83.0062 29.2C84.5062 19.6 86.2062 10 88.0062 0.4C86.1062 0.3 85.2063 0.2 83.3063 0.2C82.1063 7.8 81.0062 15.5 80.0062 23.1C79.3063 15.4 78.6062 7.7 77.9062 0C76.2063 0 74.5062 0 72.8063 0C72.0062 7.6 71.4062 15.2 70.8063 22.9C69.8063 15.3 68.6062 7.7 67.4062 0.2C65.7063 0.3 63.9062 0.3 62.2062 0.5C64.0062 10.1 65.7063 19.6 67.3063 29.2C69.3063 29.1 71.4062 29 73.5062 29ZM101.606 26.7C98.9062 26.3 96.2062 26 93.5062 25.7C93.8063 22.9 94.1063 20.1 94.3063 17.3C96.5062 17.5 98.8063 17.8 101.006 18.1C101.206 16.5 101.306 15.6 101.506 14C99.2062 13.7 96.9062 13.4 94.6062 13.2C94.9062 10.5 95.1062 7.8 95.4062 5.2C98.4062 5.5 101.406 5.9 104.406 6.3C104.606 4.7 104.806 3.8 105.006 2.2C100.206 1.5 95.4062 1 90.5062 0.7C89.8063 10.3 89.1062 20 88.4062 29.6C92.6062 29.9 96.7063 30.4 100.906 30.9C101.206 29.1 101.406 28.3 101.606 26.7ZM108.406 32C109.106 28.1 109.806 24.3 110.506 20.4C111.206 20.5 111.506 20.6 112.206 20.7C114.406 21.1 115.206 22.9 114.606 24.9C114.206 26.7 114.006 27.6 113.706 29.4C113.206 31.7 113.306 32.2 113.406 33C115.206 33.4 116.206 33.6 118.006 34C117.806 32.8 118.006 31.8 118.306 30.5C118.706 28.8 118.906 27.9 119.306 26.2C120.006 23.8 119.706 21 117.506 19.5C120.006 19 121.606 16.9 122.006 14.5C122.206 13.6 122.306 13.2 122.506 12.3C123.806 7.7 120.506 5 116.306 4.1C113.706 3.6 111.006 3.1 108.306 2.7C106.806 12.2 105.306 21.8 103.806 31.3C105.706 31.5 106.606 31.6 108.406 32ZM112.906 7.6C113.906 7.8 114.406 7.9 115.406 8.1C117.206 8.5 117.806 9.5 117.406 11.5C117.206 12.6 117.006 13.2 116.806 14.3C116.606 16.2 115.006 17.2 113.206 16.7C112.406 16.6 112.006 16.5 111.306 16.3C111.806 13.4 112.406 10.5 112.906 7.6ZM36.1063 39.9V61.2L70.8063 75L39.4062 61.1L74.9062 74.4L110.406 61.1L79.0062 75L113.706 61.2V39.9C88.1063 33.5 61.7063 33.5 36.1063 39.9ZM52.8063 42.7H49.9062V46.1H52.2062V47.7H49.9062V52.3H48.1063V41.1H52.8063V42.7ZM58.0062 52.3H56.2062V41.1H58.0062V52.3ZM64.4062 58.8H62.7062V57.6C62.7062 56.8 62.3063 56.5 61.8063 56.5C61.2063 56.5 60.9062 56.8 60.9062 57.6V63.7C60.9062 64.5 61.3063 64.8 61.8063 64.8C62.4062 64.8 62.7062 64.5 62.7062 63.7V62H64.4062V63.5C64.4062 65.3 63.5063 66.3 61.8063 66.3C60.1063 66.3 59.2062 65.3 59.2062 63.5V57.7C59.2062 55.9 60.1063 54.9 61.8063 54.9C63.5063 54.9 64.4062 55.9 64.4062 57.7V58.8ZM66.8063 42.7H64.9062V52.3H63.1063V42.7H61.2062V41.1H66.7063V42.7H66.8063ZM72.7063 66.2H68.0062V55H69.8063V64.6H72.7063V66.2ZM96.4062 48.9H98.1062V49.7C98.1062 50.5 98.5062 50.8 99.0062 50.8C99.6062 50.8 99.9062 50.5 99.9062 49.7C99.9062 47.4 96.4062 47 96.4062 43.7C96.4062 41.9 97.3063 40.9 99.0062 40.9C100.706 40.9 101.606 41.9 101.606 43.7V44.1H99.9062V43.6C99.9062 42.8 99.6062 42.5 99.0062 42.5C98.4062 42.5 98.1062 42.8 98.1062 43.6C98.1062 45.9 101.606 46.3 101.606 49.6C101.606 51.4 100.706 52.4 99.0062 52.4C97.3063 52.4 96.4062 51.4 96.4062 49.6V48.9ZM87.8063 48.9H89.5062V49.7C89.5062 50.5 89.9062 50.8 90.4062 50.8C90.9062 50.8 91.3063 50.5 91.3063 49.7C91.3063 47.4 87.8063 47 87.8063 43.7C87.8063 41.9 88.7063 40.9 90.4062 40.9C92.1062 40.9 93.0062 41.9 93.0062 43.7V44.1H91.3063V43.6C91.3063 42.8 91.0062 42.5 90.4062 42.5C89.8063 42.5 89.5062 42.8 89.5062 43.6C89.5062 45.9 93.0062 46.3 93.0062 49.6C93.0062 51.4 92.1062 52.4 90.4062 52.4C88.7063 52.4 87.8063 51.4 87.8063 49.6V48.9ZM85.0062 55H87.7063C89.5063 55 90.3063 55.9 90.3063 57.6V58C90.3063 59.2 89.9062 59.9 89.2063 60.3C90.2063 60.7 90.5062 61.5 90.5062 62.7V63.6C90.5062 65.3 89.6063 66.3 87.8063 66.3H85.0062V55ZM79.6062 41.1H84.4062V42.7H81.3063V45.8H83.7063V47.4H81.3063V50.7H84.4062V52.3H79.6062V41.1ZM76.0062 55H77.8063V63.7C77.8063 64.5 78.2063 64.8 78.7063 64.8C79.2063 64.8 79.6062 64.5 79.6062 63.7V55H81.3063V63.6C81.3063 65.4 80.4062 66.4 78.7063 66.4C77.0063 66.4 76.1062 65.4 76.1062 63.6V55H76.0062ZM75.8063 52.3H73.9062L71.7063 44.2V52.3H70.1062V41.1H72.3063L74.1062 47.8V41.1H75.7063V52.3H75.8063ZM88.6062 58.4V57.8C88.6062 57 88.3063 56.6 87.7063 56.6H86.8063V59.6H87.5062C88.2062 59.6 88.6062 59.3 88.6062 58.4ZM88.8063 63.5V62.5C88.8063 61.5 88.5063 61.1 87.7063 61.1H86.9062V64.6H87.9062C88.4062 64.6 88.8063 64.3 88.8063 63.5Z" fill="black"/>
</svg>
