<svg width="108" height="90" viewBox="0 0 108 90" fill="none" xmlns="http://www.w3.org/2000/svg">
<path d="M44.9 38.8998H53.8V55.0998L61.6 32.6998H52.9V15.0998L44.9 38.8998ZM74.9 33.1998C74.3 27.8998 71.9 23.2998 68.4 19.8998C69.7 13.7998 72.3 7.89983 70.3 4.09983C67.8 -0.500169 53.8 -0.000169404 53.4 -0.000169404C53 -0.000169404 39 -0.500169 36.4 4.19983C34.5 7.79983 36.8 13.3998 38.1 19.1998C39.1 18.6998 40.8 17.7998 40.8 17.7998C40.8 17.7998 40.8 17.7998 40.8 17.8998C40 18.4998 39.3 19.0998 38.6 19.6998C33.7 24.2998 31 31.0998 31.9 38.3998C33.1 48.5998 40.9 56.3998 50.5 57.6998L51.7 60.6998V57.7998V41.1998H41.4L51.2 13.7998C51.1 13.7998 51 13.7998 50.9 13.7998C47.8 14.1998 44.9 15.1998 42.3 16.7998C42.2 16.8998 42.1 16.9998 41.9 17.0998C41 13.2998 40.6 7.89983 42 6.39983C44.2 3.99983 50.3 8.29983 53.4 8.29983C56.5 8.29983 62.6 3.99983 64.8 6.39983C66.1 7.89983 65.8 13.2998 64.9 17.0998C64.8 16.9998 64.7 16.8998 64.5 16.7998C62 15.2998 59.1 14.1998 56.1 13.8998L55.2 11.3998V29.9998H65.2L55.3 57.7998C55.5 57.7998 55.8 57.6998 56 57.6998C67.8 56.1998 76.3 45.2998 74.9 33.1998ZM42.7 19.1998C30.8 40.2998 41.1 50.8998 42.5 52.2998C42.6 52.3998 42.6 52.3998 42.7 52.4998C42.7 52.4998 42.6 52.3998 42.5 52.2998C33.4 44.3998 36.3 30.9998 36.3 30.9998C33.7 35.4998 34.3 41.7998 34.3 41.7998C31.7 26.6998 42.7 19.1998 42.7 19.1998ZM40.2 3.99983C46.8 0.599831 54.7 2.89983 54.7 2.89983C46.4 1.79983 40.2 3.99983 40.2 3.99983ZM61.6 53.5998C74.3 41.8998 69 27.3998 69 27.3998C77.9 43.8998 61.6 53.5998 61.6 53.5998ZM2.4 77.2998H6.7V75.0998H2.4V72.0998H7.8V69.8998H0V82.2998H8.1V80.0998H2.4V77.2998ZM20.6 69.8998H18.2V78.2998L12.8 69.8998H10.4V82.2998H12.8V74.0998L18.2 82.2998H20.7V69.8998H20.6ZM31.4 80.0998H25.6V77.1998H30V74.9998H25.7V71.9998H31V69.7998H23.2V82.1998H31.3V80.0998H31.4ZM39.9 77.7998C40.4 77.5998 40.9 77.3998 41.2 76.9998C41.6 76.6998 41.9 76.2998 42.1 75.7998C42.3 75.2998 42.4 74.6998 42.4 74.0998C42.4 73.4998 42.3 72.8998 42.1 72.4998C41.9 71.9998 41.7 71.5998 41.3 71.1998C41 70.7998 40.5 70.4998 40 70.2998C39.4 70.0998 38.8 69.9998 38.1 69.9998H33.5V82.3998H35.9V78.1998H37.3L40 82.3998H42.9L39.9 77.7998ZM37.6 75.8998H35.9V72.0998H37.7C38.4 72.0998 38.9 72.2998 39.3 72.5998C39.7 72.8998 39.9 73.3998 39.9 73.9998C39.9 74.5998 39.7 74.9998 39.3 75.3998C38.9 75.7998 38.3 75.8998 37.6 75.8998ZM54.9 75.5998H49.8V77.6998H52.5V79.4998C51.8 79.9998 50.9 80.1998 50 80.1998C49.3 80.1998 48.6 79.9998 48 79.6998C47.4 79.2998 47 78.8998 46.7 78.1998C46.4 77.5998 46.3 76.8998 46.3 76.0998C46.3 75.4998 46.4 74.8998 46.6 74.3998C46.8 73.8998 47 73.4998 47.4 73.0998C47.7 72.7998 48.1 72.4998 48.5 72.2998C48.9 72.0998 49.4 71.9998 49.9 71.9998C51.1 71.9998 52.2 72.3998 53 73.2998L54.7 71.7998C54.1 71.0998 53.4 70.5998 52.5 70.1998C51.6 69.7998 50.8 69.6998 49.9 69.6998C49 69.6998 48.1 69.8998 47.3 70.1998C46.5 70.4998 45.9 70.9998 45.4 71.4998C44.9 72.0998 44.5 72.6998 44.2 73.4998C43.9 74.2998 43.8 75.0998 43.8 75.9998C43.8 76.9998 44 77.8998 44.3 78.5998C44.6 79.3998 45.1 80.0998 45.6 80.5998C46.2 81.0998 46.8 81.4998 47.6 81.7998C48.4 82.0998 49.2 82.1998 50 82.1998C50.9 82.1998 51.8 82.0998 52.7 81.7998C53.6 81.4998 54.3 81.1998 54.8 80.6998V75.5998H54.9ZM63.5 69.8998L61 74.4998L58.5 69.9998H55.7L59.7 76.8998V82.2998H62.1V76.8998L66.2 69.9998H63.5V69.8998ZM82.8 75.5998H77.7V77.6998H80.4V79.4998C79.7 79.9998 78.8 80.1998 77.9 80.1998C77.2 80.1998 76.5 79.9998 75.9 79.6998C75.3 79.2998 74.9 78.8998 74.6 78.1998C74.3 77.5998 74.2 76.8998 74.2 76.0998C74.2 75.4998 74.3 74.8998 74.5 74.3998C74.7 73.8998 74.9 73.4998 75.3 73.0998C75.6 72.7998 76 72.4998 76.4 72.2998C76.8 72.0998 77.3 71.9998 77.8 71.9998C79 71.9998 80.1 72.3998 80.9 73.2998L82.6 71.7998C82 71.0998 81.3 70.5998 80.4 70.1998C79.5 69.7998 78.7 69.6998 77.8 69.6998C76.9 69.6998 76 69.8998 75.2 70.1998C74.4 70.4998 73.8 70.9998 73.3 71.4998C72.8 72.0998 72.4 72.6998 72.1 73.4998C71.8 74.2998 71.7 75.0998 71.7 75.9998C71.7 76.9998 71.9 77.8998 72.2 78.5998C72.5 79.3998 73 80.0998 73.5 80.5998C74.1 81.0998 74.7 81.4998 75.5 81.7998C76.3 82.0998 77.1 82.1998 77.9 82.1998C78.8 82.1998 79.7 82.0998 80.6 81.7998C81.5 81.4998 82.2 81.1998 82.7 80.6998V75.5998H82.8ZM88.9 74.4998L86.4 69.9998H83.6L87.6 76.8998V82.2998H90V76.8998L94.1 69.9998H91.3L88.9 74.4998ZM105.6 69.8998L101.9 76.8998L98.2 69.8998H95.8V82.2998H98V74.5998L101 79.8998H102.6L105.6 74.5998V82.2998H108V69.8998H105.6ZM19.8 86.7998H20.9V89.9998H21.7V86.7998H22.8V86.0998H19.9V86.7998H19.8ZM26.5 86.0998L25.1 89.9998H25.9L26.2 89.1998H27.7L28 89.9998H28.8L27.4 86.0998H26.5ZM26.4 88.4998L26.9 86.9998L27.4 88.4998H26.4ZM33.1 88.4998H34V89.0998C33.8 89.1998 33.5 89.2998 33.2 89.2998C33 89.2998 32.8 89.1998 32.6 89.0998C32.4 88.9998 32.3 88.7998 32.2 88.5998C32.1 88.4998 32 88.2998 32 87.9998C32 87.7998 32 87.5998 32.1 87.4998C32.2 87.2998 32.2 87.1998 32.3 87.0998C32.4 86.9998 32.5 86.8998 32.7 86.8998C32.8 86.7998 33 86.7998 33.1 86.7998C33.5 86.7998 33.8 86.8998 34.1 87.1998L34.6 86.6998C34.4 86.4998 34.2 86.2998 33.9 86.1998C33.6 86.0998 33.4 85.9998 33.1 85.9998C32.8 85.9998 32.5 86.0998 32.3 86.1998C32.1 86.2998 31.9 86.3998 31.7 86.5998C31.5 86.7998 31.4 86.9998 31.3 87.1998C31.2 87.3998 31.2 87.6998 31.2 87.9998C31.2 88.2998 31.2 88.5998 31.3 88.7998C31.4 89.0998 31.5 89.2998 31.7 89.3998C31.9 89.5998 32.1 89.6998 32.3 89.7998C32.5 89.8998 32.8 89.8998 33.1 89.8998C33.4 89.8998 33.7 89.8998 33.9 89.7998C34.2 89.6998 34.4 89.5998 34.6 89.4998V87.7998H33V88.4998H33.1ZM38.7 86.0998H37.9V89.9998H40.4V89.2998H38.7V86.0998ZM43.4 89.9998H44.2V86.0998H43.4V89.9998ZM50 88.6998L48.3 86.0998H47.5V89.9998H48.3V87.3998L50 89.9998H50.8V86.0998H50V88.6998ZM54.7 88.3998H56.1V87.6998H54.7V86.7998H56.4V86.0998H54V89.9998H56.6V89.2998H54.8V88.3998H54.7ZM65.8 87.7998H64.2V86.0998H63.4V89.9998H64.2V88.4998H65.8V89.9998H66.6V86.0998H65.8V87.7998ZM70.6 88.3998H72V87.6998H70.6V86.7998H72.3V86.0998H69.9V89.9998H72.5V89.2998H70.7V88.3998H70.6ZM77.6 88.4998C77.8 88.3998 77.9 88.3998 78 88.2998C78.1 88.1998 78.2 88.0998 78.3 87.8998C78.4 87.6998 78.4 87.5998 78.4 87.3998C78.4 87.1998 78.4 86.9998 78.3 86.8998C78.2 86.6998 78.2 86.5998 78.1 86.4998C78 86.3998 77.9 86.2998 77.7 86.1998C77.5 86.0998 77.3 86.0998 77.1 86.0998H75.7V89.9998H76.4V88.6998H76.8L77.7 89.9998H78.6L77.6 88.4998ZM76.8 87.9998H76.3V86.7998H76.9C77.1 86.7998 77.3 86.8998 77.4 86.9998C77.5 87.0998 77.6 87.2998 77.6 87.3998C77.6 87.5998 77.5 87.6998 77.4 87.7998C77.3 87.8998 77.1 87.9998 76.8 87.9998ZM82.3 88.3998H83.7V87.6998H82.3V86.7998H84V86.0998H81.6V89.9998H84.2V89.2998H82.4V88.3998H82.3Z" fill="black"/>
</svg>
