<svg width="140" height="50" viewBox="0 0 140 50" fill="none" xmlns="http://www.w3.org/2000/svg">
<path d="M42.1 10.1C41.9 10.1 41.8 10 41.7 9.9C41.6 9.8 41.6 9.7 41.6 9.6V6.3H45.1C46 6.3 46.7 6.2 47.2 6C47.7 5.8 48.1 5.5 48.4 5.1C48.8 4.6 48.9 4 48.9 3.3C48.9 2.8 48.8 2.4 48.6 2C48.4 1.6 48.2 1.3 47.8 1C47.5 0.8 47.1 0.6 46.7 0.5C46.3 0.4 45.7 0.4 45 0.4H38.9V0.6C39.1 0.6 39.2 0.7 39.3 0.8C39.4 0.9 39.4 1 39.4 1.1V9.5C39.4 9.6 39.4 9.8 39.3 9.8C39.2 9.9 39.1 9.9 38.9 10V10.2H42V10.1H42.1ZM41.7 2.1H45C45.7 2.1 46.1 2.2 46.4 2.3C46.6 2.4 46.7 2.5 46.8 2.7C46.9 2.9 47 3.1 47 3.4C47 3.6 46.9 3.9 46.8 4.1C46.7 4.3 46.6 4.4 46.4 4.5C46.1 4.6 45.7 4.7 45 4.7H41.7V2.1ZM51.7 9.1C52.7 10 54.1 10.5 55.7 10.5C58 10.5 59.6 9.7 60.6 8.1C61.1 7.3 61.4 6.4 61.4 5.4C61.4 3.9 60.9 2.6 59.8 1.6C58.8 0.7 57.4 0.2 55.7 0.2C53.4 0.2 51.8 1 50.8 2.6C50.3 3.4 50 4.3 50 5.3C50 6 50.1 6.6 50.4 7.2C50.7 8 51.1 8.6 51.7 9.1ZM53.4 2.8C54 2.3 54.8 2 55.7 2C56.6 2 57.4 2.3 58.1 2.8C58.8 3.4 59.2 4.3 59.2 5.4C59.2 5.9 59.1 6.3 58.9 6.7C58.7 7.2 58.4 7.6 58.1 7.9C57.5 8.5 56.7 8.7 55.8 8.7C54.9 8.7 54.1 8.4 53.4 7.9C52.7 7.2 52.3 6.4 52.3 5.3C52.3 4.3 52.6 3.5 53.4 2.8ZM62.3 1.7L65.1 9C65.2 9.4 65.3 9.6 65.3 9.6C65.3 9.9 65.1 10 64.8 10.1V10.3H68V10.1C67.6 10 67.5 9.9 67.5 9.6C67.5 9.5 67.6 9.3 67.7 9L69.9 3.3L72 9C72.1 9.3 72.2 9.6 72.2 9.7C72.2 10 72 10.1 71.7 10.2V10.4H75V10.2C74.7 10.1 74.5 10 74.5 9.8C74.5 9.7 74.6 9.5 74.7 9.1L77.5 1.8C77.6 1.4 77.8 1.2 77.9 1.1C78 1 78.2 0.9 78.4 0.8V0.5H75V0.7C75.3 0.8 75.5 0.9 75.5 1.1C75.5 1.2 75.4 1.4 75.3 1.7L73.4 6.8L71.4 1.6C71.3 1.4 71.3 1.2 71.3 1.2C71.3 1 71.5 0.8 71.8 0.7V0.5H68.2V0.7C68.5 0.8 68.7 0.9 68.7 1.1C68.7 1.2 68.7 1.3 68.6 1.5L66.5 6.8L64.6 1.6C64.5 1.4 64.5 1.2 64.5 1.1C64.5 0.9 64.7 0.7 65 0.7V0.5H61.6V0.7C61.8 0.7 62 0.8 62.1 1C62 1.1 62.2 1.3 62.3 1.7ZM88.3 10.5C88.4 10.6 88.4 10.7 88.5 10.9H88.7V8.3H88.5C88.5 8.5 88.4 8.6 88.3 8.7C88.2 8.8 88.1 8.8 88 8.8H81.7V6H85.7C85.8 6 86 6 86 6.1C86.1 6.2 86.1 6.3 86.2 6.5H86.4V4H86.2C86.2 4.2 86.1 4.3 86 4.4C85.9 4.5 85.8 4.5 85.7 4.5H81.7V2.1H87.8C87.9 2.1 88.1 2.1 88.1 2.2C88.2 2.3 88.2 2.4 88.3 2.6H88.5V0H88.3C88.3 0.2 88.2 0.3 88.1 0.4C88 0.5 87.9 0.5 87.8 0.5H79V0.7C79.2 0.7 79.3 0.8 79.4 0.9C79.5 1 79.5 1.1 79.5 1.2V9.6C79.5 9.7 79.5 9.9 79.4 9.9C79.3 10 79.2 10 79 10.1V10.3H88C88.1 10.4 88.2 10.4 88.3 10.5ZM93.3 10.1C93.1 10.1 93 10 92.9 9.9C92.8 9.8 92.8 9.7 92.8 9.6V6.3H95.4L97.4 9.2C97.6 9.5 97.7 9.7 97.7 9.8C97.7 9.9 97.6 10 97.3 10.1V10.3H100.8V10.1C100.6 10.1 100.4 10 100.2 9.9C100 9.8 99.8 9.5 99.5 9L97.6 6.3C99.4 6 100.3 5.1 100.3 3.5C100.3 3 100.2 2.6 100 2.2C99.8 1.8 99.5 1.4 99.2 1.2C98.9 1 98.5 0.8 98.1 0.7C97.7 0.6 97.1 0.6 96.3 0.6H90.2V0.8C90.4 0.8 90.5 0.9 90.6 1C90.7 1.1 90.7 1.2 90.7 1.3V9.7C90.7 9.8 90.7 10 90.6 10C90.5 10.1 90.4 10.1 90.2 10.2V10.4H93.3V10.1ZM92.8 2.1H96.1C96.6 2.1 96.9 2.1 97.1 2.1C97.3 2.1 97.5 2.2 97.6 2.3C98 2.5 98.1 2.9 98.1 3.4C98.1 3.9 97.9 4.3 97.6 4.5C97.4 4.6 97.2 4.7 97 4.7C96.8 4.7 96.5 4.7 96 4.7H92.7V2.1H92.8ZM102.7 20H101.7V23H102.7C103 23 103.3 22.9 103.5 22.7C103.7 22.5 103.8 22.2 103.8 21.8V21.2C103.8 20.8 103.7 20.5 103.5 20.3C103.3 20.1 103.1 20 102.7 20ZM140 9.8H108.3L124.1 13.6H16L31.8 9.8H0L11.4 22L0 30.3H22.1L23.5 35.4H116.1L117.6 30.3H140L128.6 20.4L140 9.8ZM41.7 31.1H30.5V28.1H31.6V20H30.5V17.1H38.2V20H36.6V28.1H38.2V26.4H41.7V31.1ZM51 20H49.9V28.1H51V31.1H43.9V28.1H45V20H43.9V17.1H51V20ZM64 21.7H60.8V20H59.2V23H61.9V25.1H59.2V28.2H61.5V31.2H53.1V28.2H54.2V20H53.1V17.1H64V21.7ZM79.3 21.5H76.2V20H75V28.1H76.2V31.1H68.7V28.1H69.9V20H68.8V21.4H65.7V17H79.1V21.5H79.3ZM93.4 22.5H89.4V20H87.2V22.8H88.8V24.9H87.2V28.1H89.4V25.3H93.4V31.1H81.2V28.1H82.3V20H81.2V17.1H93.4V22.5ZM109.5 31.1H103.9V26.9C103.9 26.5 103.9 26.2 103.8 26C103.7 25.8 103.6 25.6 103.4 25.5C103.2 25.4 103 25.3 102.7 25.3C102.4 25.3 102.1 25.2 101.8 25.2V28.2H103V31.2H95.8V28.2H96.9V20H95.8V17.1H104.2C104.9 17.1 105.6 17.2 106.2 17.3C106.8 17.4 107.3 17.7 107.7 18C108.1 18.3 108.4 18.7 108.6 19.3C108.8 19.8 108.9 20.4 108.9 21.2C108.9 22 108.7 22.7 108.4 23.3C108.1 23.9 107.6 24.3 107 24.5V24.7C108.1 24.9 108.7 25.6 108.7 26.8V28.2H109.5V31.1ZM47.2 38.9C45.1 38.3 42.8 39.4 42.1 41.4C41.4 43.5 42.7 45.8 45.1 46.5C46.8 47 48.2 46.6 48.2 46.6C48.3 46.6 48.3 46.5 48.3 46.4C48.6 45.2 48.7 44.7 49 43.5C49 43.4 49 43.3 48.8 43.2C47.9 43 47.4 42.8 46.5 42.6C46.4 42.6 46.3 42.6 46.2 42.7C46.1 43.1 46 43.3 45.9 43.8C45.9 43.9 45.9 44 46.1 44.1C46.4 44.2 46.5 44.2 46.8 44.3C46.7 44.5 46.7 44.7 46.6 44.9C46.2 44.9 45.9 44.9 45.5 44.8C44.2 44.4 43.5 43.1 43.9 42C44.3 40.8 45.5 40.2 46.7 40.5C47.2 40.7 47.7 41 48 41.4C48.1 41.5 48.2 41.5 48.3 41.5C48.7 41.2 49 41.1 49.4 40.8C49.5 40.7 49.5 40.6 49.5 40.5C49 39.8 48.1 39.2 47.2 38.9ZM56.9 41.2C56.3 41.1 56 41.1 55.5 41C55.4 41 55.3 41 55.3 41.1C54.5 41.9 54.1 42.3 53.3 43C52.8 42 52.6 41.5 52.2 40.4C52.2 40.3 52.1 40.3 52 40.3C51.4 40.2 51.1 40.1 50.6 40C50.4 40 50.3 40.1 50.4 40.3C51 42 51.4 42.8 52.1 44.5C51.8 45.9 51.7 46.6 51.4 47.9C51.4 48 51.5 48.1 51.6 48.2C52.2 48.3 52.5 48.4 53 48.5C53.1 48.5 53.2 48.4 53.3 48.3C53.6 46.9 53.7 46.2 54 44.8C55.3 43.5 55.9 42.9 57.2 41.6C57.1 41.4 57.1 41.2 56.9 41.2ZM64.7 41.9C64.6 41.9 64.6 41.9 64.5 41.9C64.4 41.9 64.3 41.9 64.3 42C63.1 43.8 62.5 44.7 61.3 46.5C60.4 44.5 60 43.5 59.2 41.4C59.2 41.3 59.1 41.3 59 41.3C58.9 41.3 58.9 41.3 58.8 41.3C58.7 41.3 58.6 41.3 58.6 41.4C57.7 44.3 57.2 45.7 56.2 48.6C56.2 48.7 56.2 48.9 56.4 48.9C57 49 57.3 49 57.8 49.1C57.9 49.1 58 49 58.1 49C58.5 47.7 58.7 47 59.1 45.7C59.7 47.2 60 48 60.7 49.5C60.7 49.6 60.8 49.6 60.9 49.6C61 49.6 61 49.6 61.1 49.6C61.2 49.6 61.3 49.6 61.3 49.5C62.3 48.2 62.7 47.5 63.6 46.1C63.7 47.5 63.8 48.2 63.9 49.6C63.9 49.7 64 49.8 64.1 49.8C64.7 49.8 65 49.9 65.5 49.9C65.6 49.9 65.8 49.8 65.7 49.7C65.3 46.7 65.1 45.2 64.8 42.2C64.9 42 64.8 41.9 64.7 41.9ZM75.7 47.6C75.6 47.5 75.5 47.5 75.4 47.6C75 48 74.4 48.2 73.8 48.2C72.4 48.3 71.4 47.3 71.4 46C71.4 44.8 72.3 43.7 73.6 43.6C74.2 43.6 74.7 43.7 75.2 44.1C75.3 44.2 75.4 44.2 75.5 44.1C75.8 43.7 76 43.5 76.3 43.1C76.4 43 76.4 42.9 76.3 42.8C75.5 42.2 74.6 41.9 73.5 41.9C71.3 42 69.5 43.8 69.5 46C69.5 48.2 71.5 50 73.9 49.9C75 49.8 76 49.4 76.8 48.6C76.9 48.5 76.9 48.4 76.8 48.3C76.3 48.1 76.1 47.9 75.7 47.6ZM82.8 47.3C81.7 47.5 81.1 47.5 80 47.7C79.7 45.3 79.6 44.2 79.3 41.8C79.3 41.7 79.2 41.6 79.1 41.6C78.6 41.7 78.3 41.7 77.8 41.7C77.7 41.7 77.6 41.8 77.6 41.9C77.9 44.8 78 46.3 78.3 49.2C78.3 49.3 78.4 49.4 78.5 49.4C80.3 49.2 81.2 49.1 83.1 48.8C83.2 48.8 83.3 48.7 83.3 48.6C83.2 48.1 83.2 47.9 83.1 47.4C83 47.4 82.9 47.3 82.8 47.3ZM89.3 40C89.3 39.9 89.2 39.8 89 39.8C88.5 39.9 88.2 40 87.7 40.1C87.6 40.1 87.5 40.2 87.5 40.4C87.9 42.2 88.1 43 88.5 44.8C88.7 45.6 88.2 46.3 87.3 46.5C86.5 46.7 85.7 46.2 85.6 45.4C85.3 43.6 85.1 42.8 84.8 41C84.8 40.9 84.7 40.8 84.6 40.8C84.1 40.9 83.8 40.9 83.2 41C83.1 41 83 41.1 83 41.2C83.3 43 83.4 43.9 83.7 45.7C84 47.4 85.7 48.5 87.6 48.1C89.5 47.7 90.7 46 90.3 44.3C89.9 42.7 89.7 41.8 89.3 40ZM95.9 41.9C95.9 41.9 96.9 40.6 96.6 39.8C96.2 38.7 94.9 38.2 93.6 38.6C92.6 38.9 92.1 39.1 91.1 39.3C91 39.3 90.9 39.5 90.9 39.6C91.7 42.4 92 43.8 92.8 46.7C92.8 46.8 92.9 46.9 93.1 46.8C94.3 46.5 94.9 46.3 96 45.9C97.4 45.5 98.3 44.2 97.9 43C97.7 42.1 96 41.9 95.9 41.9ZM93.1 40.4C93.4 40.3 93.6 40.2 94 40.1C94.4 40 94.9 40.2 95 40.6C95.1 41 94.9 41.5 94.5 41.6C94.2 41.7 94 41.8 93.6 41.9C93.4 41.3 93.3 41 93.1 40.4ZM95.4 44.5C95 44.6 94.8 44.7 94.3 44.8C94.1 44.2 94 43.9 93.9 43.3C94.3 43.2 94.5 43.1 94.8 43C95.2 42.9 95.8 43 96 43.5C96.2 43.9 95.9 44.4 95.4 44.5Z" fill="black"/>
</svg>
