<svg width="104" height="79" viewBox="0 0 104 79" fill="none" xmlns="http://www.w3.org/2000/svg">
<path d="M72.9 24.3C67.4 20.8 60.7 19.1 54.3 18.7L50.3 25.9L46.4 18.8C40.1 19.3 33.5 21.1 28.1 24.6C28.1 24.6 30.8 23.6 34.9 23.4L50.1 52.7L65.5 23.5C69.7 23.3 72.9 24.3 72.9 24.3ZM9 24.2L14 33.9L17.4 32.1L12.4 22.4L9 24.2ZM78.1 32.2L81.6 34L89.2 19.2L85.7 17.4L78.1 32.2ZM22.9 32.2L15.3 17.4L11.8 19.2L19.4 34L22.9 32.2ZM83.6 32.2L87 34L92 24.3L88.6 22.5L83.6 32.2ZM28.2 32L23.9 23.5C28 20.2 33.5 17.8 39.5 16.5C40.3 16.3 41.1 16.2 41.9 16C42.1 16 42.2 15.9 42.4 15.9C43.2 15.8 44.1 15.6 44.9 15.6C45 15.6 45.1 15.6 45.2 15.6C46 15.5 46.8 15.5 47.5 15.4C47.7 15.4 47.8 15.4 48 15.4C48.9 15.4 49.7 15.3 50.6 15.3C50.8 15.3 50.9 15.3 51.1 15.3C51.9 15.3 52.6 15.3 53.4 15.4C53.5 15.4 53.7 15.4 53.8 15.4C54.6 15.4 55.5 15.5 56.3 15.6C56.5 15.6 56.7 15.6 56.9 15.7C57.7 15.8 58.5 15.9 59.3 16C59.4 16 59.4 16 59.5 16C60.3 16.1 61.2 16.3 62 16.5C67.8 17.7 73.1 20 77.3 23.3L72.8 32L76.2 33.8L86.1 14.4L82.7 12.6L79 19.8C76.5 17.8 73.5 16.1 70.3 14.8L78.1 0C75.6 0.9 72.8 1.7 69.5 2.4C69.3 2.4 69 2.5 68.8 2.5C68.4 2.6 68 2.6 67.6 2.7C67.4 2.7 67.1 2.8 66.9 2.8C66.4 2.9 66 2.9 65.5 3C65.3 3 65.1 3.1 64.9 3.1C64.2 3.2 63.5 3.3 62.8 3.4L58.2 11.7C56.3 11.5 54.4 11.3 52.4 11.3C51.8 11.3 51.1 11.3 50.5 11.3C49.9 11.3 49.2 11.3 48.6 11.4C46.7 11.5 44.7 11.7 42.8 11.9L38.2 3.5C37.3 3.4 36.4 3.3 35.5 3.2C35.3 3.2 35 3.1 34.8 3.1C34.1 3 33.5 2.9 32.8 2.8C29.1 2.2 25.8 1.3 23 0.3L30.7 15.2C27.5 16.5 24.6 18.1 22.1 20L18.3 12.7L14.9 14.5L24.8 33.9L28.2 32ZM33.7 78.1L32.6 75.6H31.2V79H32.1V76.4L33.2 79H34.6V75.6H33.7V78.1ZM38 77.5H39.7V76.8H38V76.2H39.7V75.4H37V79H39.7V78.2H38V77.5ZM26.1 76.3H27V79H28V76.3H28.9V75.5H26.1V76.3ZM18.1 79H19.1V77.8H20.5V77H19V76.3H20.5V75.5H18.1V79ZM22.8 79H23.8V75.6H22.8V79ZM72 76.3H72.9V79H73.9V76.3H74.8V75.5H72V76.3ZM68.8 78.1L67.7 75.6H66.3V79H67.2V76.4L68.3 79H69.7V75.6H68.8V78.1ZM78.5 75.5H77V79H78V78H78.5C78.7 78 78.8 78 78.8 78.1C78.9 78.2 78.9 78.3 78.9 78.4V79H79.9V78.3C79.9 78.1 79.8 77.9 79.7 77.8C79.6 77.7 79.4 77.6 79.2 77.6C79.4 77.6 79.6 77.5 79.7 77.4C79.8 77.3 79.9 77.1 79.9 76.9V76.6C79.9 76.3 79.8 76 79.6 75.9C79.4 75.6 79 75.5 78.5 75.5ZM78.9 76.8C78.9 76.9 78.9 77 78.8 77.1C78.7 77.2 78.6 77.2 78.5 77.2H78V76.3H78.5C78.7 76.3 78.8 76.3 78.8 76.4C78.9 76.5 78.9 76.6 78.9 76.7V76.8ZM83.3 77.5H85V76.8H83.3V76.2H85V75.4H82.3V79H85V78.2H83.2V77.5H83.3ZM62.1 77.5H63.8V76.8H62.1V76.2H63.8V75.4H61.1V79H63.8V78.2H62V77.5H62.1ZM49.3 76.9L48.6 76.8C48.3 76.8 48.2 76.7 48.2 76.6V76.5C48.2 76.4 48.2 76.4 48.3 76.3C48.4 76.3 48.5 76.2 48.6 76.2H48.8C48.9 76.2 49 76.2 49.1 76.3C49.2 76.3 49.2 76.4 49.2 76.5H50.1V76.3C50.1 76 50 75.8 49.8 75.7C49.6 75.6 49.3 75.5 49 75.5H48.4C48.2 75.5 48 75.5 47.8 75.5C47.7 75.5 47.6 75.6 47.5 75.6C47.4 75.7 47.3 75.8 47.3 75.9C47.2 76 47.2 76.2 47.2 76.3V76.5C47.2 76.8 47.3 77 47.4 77.1C47.5 77.2 47.7 77.3 48 77.4L48.8 77.5C49 77.5 49.1 77.5 49.1 77.6C49.1 77.6 49.2 77.7 49.2 77.8V78C49.2 78.1 49.2 78.2 49.1 78.2C49 78.2 48.9 78.3 48.8 78.3H48.6C48.4 78.3 48.3 78.3 48.2 78.2C48.1 78.2 48.1 78.1 48.1 77.9H47.2V78.1C47.2 78.4 47.3 78.6 47.5 78.8C47.7 78.9 48 79 48.4 79H49.2C49.5 79 49.8 78.9 49.9 78.7C50.1 78.5 50.2 78.3 50.2 78V77.7C50.2 77.5 50.1 77.3 50 77.1C49.8 77 49.6 76.9 49.3 76.9ZM44.1 76.9L43.4 76.8C43.1 76.8 43 76.7 43 76.6V76.5C43 76.4 43 76.4 43.1 76.3C43.2 76.3 43.3 76.2 43.4 76.2H43.6C43.7 76.2 43.8 76.2 43.9 76.3C44 76.3 44 76.4 44 76.5H44.9V76.3C44.9 76 44.8 75.8 44.6 75.7C44.4 75.6 44.1 75.5 43.8 75.5H43.2C43 75.5 42.8 75.5 42.6 75.5C42.5 75.5 42.4 75.6 42.3 75.6C42.2 75.7 42.1 75.8 42.1 75.9C42 76 42 76.2 42 76.3V76.5C42 76.8 42.1 77 42.2 77.1C42.3 77.2 42.5 77.3 42.8 77.4L43.6 77.5C43.8 77.5 43.9 77.5 43.9 77.6C43.9 77.6 44 77.7 44 77.8V78C44 78.1 44 78.2 43.9 78.2C43.8 78.2 43.7 78.3 43.6 78.3H43.4C43.2 78.3 43.1 78.3 43 78.2C42.9 78.2 42.9 78.1 42.9 77.9H42V78.1C42 78.4 42.1 78.6 42.3 78.8C42.5 78.9 42.8 79 43.2 79H44C44.3 79 44.6 78.9 44.7 78.7C44.9 78.5 45 78.3 45 78V77.7C45 77.5 44.9 77.3 44.8 77.1C44.7 77 44.4 76.9 44.1 76.9ZM57.9 77.7C57.9 77.9 57.9 78 57.8 78.1C57.7 78.2 57.6 78.2 57.4 78.2C57.2 78.2 57.1 78.2 57 78.1C56.9 78 56.9 77.8 56.9 77.5V77C56.9 76.7 56.9 76.5 57 76.4C57.1 76.3 57.2 76.3 57.4 76.3C57.6 76.3 57.7 76.3 57.8 76.4C57.9 76.5 57.9 76.6 57.9 76.7V76.8H58.9V76.7C58.9 76.2 58.8 75.9 58.6 75.7C58.4 75.5 58 75.4 57.5 75.4H57.2C56.7 75.4 56.3 75.5 56.1 75.7C55.9 75.9 55.8 76.3 55.8 76.8V77.5C55.8 78 55.9 78.4 56.1 78.6C56.3 78.8 56.7 78.9 57.2 78.9H57.5C58 78.9 58.3 78.8 58.5 78.6C58.7 78.4 58.8 78.1 58.8 77.6V77.5L57.9 77.7ZM34.6 69.7V61.9H37.5V59.7H28.5V61.9H31.4V69.7H34.6ZM43.2 69.9H44.7C46.3 69.9 47.5 69.6 48.1 69C48.8 68.4 49.1 67.3 49.1 65.8V63.7C49.1 62.2 48.8 61.1 48.1 60.5C47.4 59.9 46.3 59.6 44.7 59.6H43.2C41.6 59.6 40.4 59.9 39.8 60.5C39.1 61.1 38.8 62.2 38.8 63.7V65.8C38.8 67.3 39.1 68.4 39.8 69C40.4 69.5 41.6 69.9 43.2 69.9ZM41.9 63.9C41.9 63 42 62.5 42.2 62.3C42.4 62.1 42.9 62 43.6 62H44.2C44.9 62 45.4 62.1 45.6 62.3C45.8 62.5 45.9 63.1 45.9 63.9V65.6C45.9 66.5 45.8 67 45.6 67.2C45.4 67.4 44.9 67.5 44.2 67.5H43.6C42.9 67.5 42.4 67.4 42.2 67.2C42 67 41.9 66.4 41.9 65.6V63.9ZM83.8 63.5L81.8 59.6H78.3L82.2 66.2V69.7H85.3V66.2L89.2 59.6H85.8L83.8 63.5ZM99.5 59.6L97.1 66.9L94.8 59.6H90.3V69.7H93.3V62.2L95.6 69.7H98.7L101 62.3V69.7H104V59.6H99.5ZM26.4 69C27.1 68.4 27.4 67.5 27.4 66.2V65.9H24.3V66.1C24.3 66.6 24.2 67 23.9 67.2C23.7 67.4 23.2 67.5 22.6 67.5C21.9 67.5 21.5 67.4 21.3 67.2C21.1 67 21 66.4 21 65.6V63.9C21 63 21.1 62.5 21.3 62.3C21.5 62.1 22 62 22.6 62C23.2 62 23.6 62.1 23.9 62.3C24.1 62.5 24.3 62.8 24.3 63.3V63.5H27.4V63.3C27.4 62 27.1 61 26.4 60.5C25.8 60 24.6 59.7 23 59.7H22.2C20.6 59.7 19.4 60 18.8 60.6C18.1 61.2 17.8 62.3 17.8 63.8V65.9C17.8 67.4 18.1 68.5 18.8 69.1C19.5 69.7 20.6 70 22.2 70H23.2C24.7 69.9 25.7 69.6 26.4 69ZM77.8 64.2H73V66.1H74.8V66.5C74.8 66.9 74.7 67.1 74.4 67.3C74.2 67.5 73.7 67.5 73.1 67.5H72.2C71.5 67.5 71 67.4 70.8 67.2C70.6 67 70.5 66.4 70.5 65.6V63.9C70.5 63 70.6 62.5 70.8 62.3C71 62.1 71.5 62 72.2 62H73C73.6 62 74 62.1 74.2 62.2C74.5 62.3 74.6 62.6 74.6 62.9H77.7V62.5C77.7 61.7 77.3 61 76.5 60.5C75.7 60 74.7 59.7 73.5 59.7H71.8C70.3 59.7 69.2 60.1 68.5 60.8C67.8 61.5 67.4 62.7 67.4 64.2V65.7C67.4 67.1 67.7 68.2 68.4 68.9C69.1 69.6 70 70 71.3 70H73.4C74.9 70 75.9 69.7 76.6 69.1C77.3 68.5 77.6 67.5 77.6 66.1V64.2H77.8ZM5.5 67.5L3.3 59.6H0L3.2 69.7H7.8L11.1 59.6H7.8L5.5 67.5ZM59.3 60.2C58.6 59.8 57.4 59.6 55.7 59.6H51.1V69.7H54.2V66.8H55.9C56.4 66.8 56.8 66.9 56.9 67C57 67.1 57.2 67.5 57.2 67.9V69.7H60.3V67.6C60.3 67 60.1 66.5 59.8 66.1C59.4 65.8 58.9 65.5 58.1 65.4C58.8 65.3 59.4 65.1 59.8 64.7C60.2 64.3 60.4 63.8 60.4 63.1V62.3C60.3 61.4 60 60.7 59.3 60.2ZM57.2 63.4C57.2 63.8 57.1 64.1 56.9 64.3C56.7 64.5 56.4 64.5 55.9 64.5H54.2V61.9H55.9C56.4 61.9 56.8 62 56.9 62.1C57.1 62.3 57.2 62.6 57.2 63V63.4ZM12.6 69.7H15.7V59.6H12.6V69.7Z" fill="black"/>
</svg>
